<svg xmlns="http://www.w3.org/2000/svg" enable-background="new 0 0 50 50" viewBox="0 0 50 50"><path d="M47.2,5.8h-2.9V4.3c0-2-10.4-5.6-19.3-1.1C16.2-1.3,5.7,2.3,5.7,4.3v1.5H2.8C1.8,5.8,1,6.6,1,7.6v26c0,1,0.8,1.8,1.8,1.8
		h8.5l4.4,7c0.6,1,0.3,1.7,0.4,2.8c0,2.1,1.7,3.7,3.7,3.7c0,0,0,0,0.1,0l8.9-0.1c1,0,1.9-0.4,2.6-1.1c1.3-1.4,1-3,1.1-3.2
		c0-0.8,0.3-1.5,0.9-2.1c0.7-0.6,1.1-1.5,1.1-2.5l0-4.5h12.5c1,0,1.8-0.8,1.8-1.8v-26C49,6.6,48.2,5.8,47.2,5.8z M42.3,4.9v24.4
		c-2.4,0.1-5.1,0.4-7.7,0.8l0-0.5c0-1.7-1.4-3-3.1-3c-0.7,0-1.4,0.3-1.9,0.7c-0.6-0.6-1.4-1-2.2-1c-0.5,0-1,0.1-1.4,0.4V4.9
		C31.1,2.3,37.1,2.3,42.3,4.9z M7.7,4.9c5.1-2.6,11.1-2.6,16.3,0v21.3c-0.2-0.1-0.5-0.1-0.7-0.1c-0.4,0-0.7,0.1-1.1,0.2l-0.1-6.6
		c0-0.8-0.3-1.6-0.9-2.1c-0.6-0.6-1.3-0.9-2.2-0.9c-0.9,0-1.7,0.4-2.3,1.1h-5.4c-0.6,0-1,0.4-1,1c0,0.6,0.4,1,1,1H16c0,0,0,0,0,0
		l0,2.6h-4.6c-0.6,0-1,0.4-1,1c0,0.6,0.4,1,1,1h4.6l0,5.6l-0.5-1c-0.9-1.7-3.1-2.3-4.8-1.4c-0.8,0.4-1.4,1.1-1.6,1.9
		c-0.5,0-0.9-0.1-1.4-0.1V4.9z M3,33.5V7.8h2.7v22.5c0,0.5,0.4,1,1,1c0.8,0,1.6,0.1,2.3,0.1c0.1,0.3,0.2,0.6,0.4,1l0.7,1.1H3z
		 M32.2,41c-1,0.9-1.6,2.2-1.6,3.6c0,0.3,0.2,1.1-0.5,1.8c-0.3,0.3-0.8,0.5-1.2,0.5L20,47c-1.1,0-1.8-0.8-1.8-1.7
		c-0.1-1,0.3-2.3-0.7-3.9c-0.7-1,2.4,3.7-6.4-10c-0.4-0.7-0.1-1.7,0.6-2.1c0.8-0.4,1.7-0.1,2.1,0.6l2.4,4.5c0.2,0.3,0.6,0.6,1.1,0.5
		c0.5-0.1,0.8-0.5,0.8-1l-0.1-10.6c0,0,0,0,0,0c0,0,0,0,0,0l0-3.6c0-0.2,0-0.4,0.1-0.5c0.2-0.3,0.5-0.6,0.9-0.6
		c0.3,0,0.6,0.1,0.8,0.3c0.2,0.2,0.3,0.5,0.3,0.7l0.1,9.4c0,0,0,0,0,0l0,2.3c0,0.3,0.1,0.5,0.3,0.7c0.2,0.2,0.4,0.3,0.7,0.3
		c0,0,0,0,0,0c0.6,0,1-0.5,1-1l0-2.3c0-0.6,0.5-1,1.1-1c0.6,0,1.1,0.5,1.1,1c0,0.3,0,2.7,0,2.6c0,0.6,0.4,1,1,1s1-0.4,1-1
		c0-0.1,0-2.5,0-2.3c0-0.6,0.5-1,1.1-1c0.6,0,1.1,0.5,1.1,1c0,0.4,0,2.7,0,2.6c0,0.6,0.4,1,1,1s1-0.4,1-1c0-0.1,0-2.5,0-2.3
		c0-0.6,0.5-1,1.1-1c0.6,0,1.1,0.5,1.1,1c0,0.9,0.1,9.2,0.1,10.3C32.7,40.4,32.5,40.7,32.2,41z M47,33.5H34.6l0-1.3
		c2.3-0.4,5-0.7,8.7-0.9c0.5,0,1-0.5,1-1V7.8H47V33.5z"/><path d="M11.4 10.6h8.3c.6 0 1-.4 1-1 0-.6-.4-1-1-1h-8.3c-.6 0-1 .4-1 1C10.4 10.2 10.9 10.6 11.4 10.6zM11.4 15.2h8.3c.6 0 1-.4 1-1 0-.6-.4-1-1-1h-8.3c-.6 0-1 .4-1 1C10.4 14.8 10.9 15.2 11.4 15.2zM30.4 10.6h8.3c.6 0 1-.4 1-1 0-.6-.4-1-1-1h-8.3c-.6 0-1 .4-1 1C29.4 10.2 29.9 10.6 30.4 10.6zM30.4 15.2h8.3c.6 0 1-.4 1-1 0-.6-.4-1-1-1h-8.3c-.6 0-1 .4-1 1C29.4 14.8 29.9 15.2 30.4 15.2zM30.4 19.8h8.3c.6 0 1-.4 1-1 0-.6-.4-1-1-1h-8.3c-.6 0-1 .4-1 1C29.4 19.3 29.9 19.8 30.4 19.8zM30.4 24.3h8.3c.6 0 1-.4 1-1 0-.6-.4-1-1-1h-8.3c-.6 0-1 .4-1 1C29.4 23.9 29.9 24.3 30.4 24.3z"/></svg>