<svg width="400" height="400" stroke="gray" fill="white" stroke-width="1"><path d="M 200 120 L 300 120 L 300 200 L 200 200 Z"></path><path d="M 231 158 Q 105 149 38 170 Q 37 259 104 299 Q 174 301 244 188 Q 236 182 231 158 "></path><path d="M 104 299 Q 174 301 244 188 Q 254 197 274 193 Q 290 241 278 280 Q 193 353 104 299 "></path><path d="M 274 193 Q 290 241 278 280 Q 318 243 324 173 Q 310 160 289 165 Q 287 185 274 193"></path><path d="M 324 173 Q 310 160 289 165 Q 289 144 270 129 Q 278 107 279 79 Q 321 117 324 173"></path><path d="M 270 129 Q 278 107 279 79 Q 223 26 135 45 Q 204 62 238 130 Q 250 118 270 129"></path><path d="M 135 45 Q 204 62 238 130 Q 229 145 232 160 Q 134 146 38 169 Q 52 76 135 45"></path></svg>