<svg width="400px" height="400px" xmlns="http://www.w3.org/2000/svg" viewBox="0 0 630.45966 414.35492">
<title>Chicken</title>
  <g transform="translate(-64.692681,-29.451498)" class="shapes">
    <path d="m 424.0625,362.375 -9.46875,2.375 0.71875,3.46875 c -1.2944,28.45345 5.11262,32.82946 6.625,47.03125 0,0 -27.72244,-10.82057 -36.625,-6.9375 -2.02503,0.88325 -5.09033,2.26776 -8.1875,3.71875 -0.90419,-4.88983 -2.32707,-10.96246 -6.3125,-21 -3.91329,-9.85592 -6.02153,-18.61124 -6.9375,-26.25 l -9.34375,-2.15625 c -0.14859,22.92184 5.41902,27.66468 6.8125,40.75 0,0 -27.75369,-10.78933 -36.65625,-6.90625 -8.90254,3.88307 -37.28252,16.33804 -4.9375,10.21875 10.14718,-1.91974 21.34375,-1 21.34375,-1 0,0 -39.1463,13.30848 -34.09375,21.34375 5.05254,8.03528 34.1875,-12.5625 34.1875,-12.5625 0,0 -15.64667,25.1063 -9.6875,27.03125 5.95917,1.92496 8.97945,-18.44788 23.125,-22.59375 7.35629,-2.15607 16.0304,4.46358 21.875,9.5 -6.3162,3.56959 -10.83484,7.43288 -8.90625,10.5 5.05255,8.03521 34.1875,-12.59375 34.1875,-12.59375 0,0 -15.64668,25.13748 -9.6875,27.0625 5.95917,1.92502 8.97945,-18.44781 23.125,-22.59375 14.14556,-4.14594 33.40133,24.34777 27.375,11.09375 -6.11822,-13.4561 -2.14442,-16.22447 -11.1875,-39 -6.6277,-16.69231 -8.03327,-30.2422 -7.34375,-40.5 z m -29.21875,54.96875 c 4.06727,-0.009 6.84375,0.21875 6.84375,0.21875 0,0 -11.48548,3.91825 -21.21875,8.78125 -1.03364,-2.76655 -1.63315,-5.12519 -2.09375,-7.4375 0.67837,-0.12104 1.22756,-0.20353 1.96875,-0.34375 5.07358,-0.95987 10.43273,-1.20961 14.5,-1.21875 z" transform="translate(58.973931,-16.979413)" style="color:#000000;fill:#ffffff;stroke:#000000;stroke-width:2" role="button" aria-label="Change color"></path>
    <path d="m 280.88732,135.21408 -37.06298,28.8268 53.53548,9.2658 z" style="color:#000000;fill:#ffffff;stroke:#000000;stroke-width:2" role="button" aria-label="Change color"></path>
    <path d="m 295.21875,47.4375 c -9.39149,0.642425 -28.0079,35.373449 -32.125,37.84375 -5.14767,3.088576 -2.06563,-22.661354 -22.65625,-25.75 -20.59056,-3.088577 -6.15625,27.78125 -6.15625,27.78125 0,0 -16.46677,-16.446355 -33.96875,-3.0625 -14.50151,11.089362 11.06268,31.95411 23.84375,44.09375 0.59499,-0.96954 1.18548,-1.94719 1.84375,-2.875 0.97121,-1.36877 2.02362,-2.69811 3.125,-3.96875 1.10139,-1.27065 2.24623,-2.49228 3.46875,-3.65625 1.22253,-1.1639 2.5092,-2.26397 3.84375,-3.3125 1.33463,-1.04853 2.71864,-2.04414 4.15625,-2.96875 1.43761,-0.92461 2.90594,-1.77043 4.4375,-2.5625 1.53163,-0.792 3.13352,-1.53667 4.75,-2.1875 1.61654,-0.65083 3.27641,-1.21771 4.96875,-1.71875 1.69241,-0.50104 3.42826,-0.93855 5.1875,-1.28125 1.75924,-0.34263 3.55805,-0.57448 5.375,-0.75 1.81703,-0.17559 3.63429,-0.28125 5.5,-0.28125 1.8657,0 3.7143,0.10566 5.53125,0.28125 1.81703,0.17559 3.61577,0.40737 5.375,0.75 1.75924,0.3427 3.46384,0.78021 5.15625,1.28125 1.69241,0.50104 3.35228,1.06792 4.96875,1.71875 1.61654,0.65083 3.18712,1.3955 4.71875,2.1875 1.53156,0.792 3.03114,1.63789 4.46875,2.5625 1.43768,0.92461 2.8217,1.92022 4.15625,2.96875 1.33463,1.04853 2.62122,2.1486 3.84375,3.3125 1.01821,0.9694 1.97163,2.01862 2.90625,3.0625 12.01559,-14.17141 25.58723,-34.075254 23.21875,-50.0625 -3.7892,-25.577035 -36.79559,12.792234 -42.25,19.3125 3.57118,-4.681126 10.33865,-16.477543 7.25,-35.78125 -0.77211,-4.82591 -2.3683,-6.830407 -4.5,-6.9375 -0.14433,-0.0072 -0.28843,-0.0102 -0.4375,0 z m -72.28125,139.75 c 0,0 -20.58857,18.55017 -17.5,29.875 3.08858,11.32483 19.5625,-8.25 19.5625,-8.25 0,0 -7.19975,30.8925 4.125,22.65625 11.32483,-8.23625 6.1875,-42.21875 6.1875,-42.21875 l -12.375,-2.0625 z" transform="translate(58.973931,-16.979413)" style="color:#000000;fill:#ffffff;stroke:#000000;stroke-width:2" role="button" aria-label="Change color"></path>
    <path d="m 342.39613,266.9938 c 0,11.32483 -3.08858,18.53153 11.32482,41.18118 14.93392,23.46752 65.40908,45.20348 98.83473,42.21066 30.36718,-2.71896 45.29926,-6.17715 71.03748,-28.8268 22.9794,-20.22192 42.21067,-67.94889 46.32879,-66.91934 4.11811,1.02948 38.09256,23.67913 50.44691,2.05902 12.35434,-21.6201 -22.64964,-24.70868 -27.79728,-24.70868 -5.14764,0 45.65874,4.57779 38.09257,-26.76778 -12.0503,-48.28579 -65.24395,43.97498 -55.59455,16.47244 4.11811,-15.95777 47.55877,-83.89657 26.76774,-85.45094 -20.55892,-1.53692 -39.12209,62.80128 -39.12209,62.80128 0,0 7.18289,-73.77987 -22.64963,-67.94889 -39.72849,7.76525 -4.11811,77.21462 -4.11811,77.21462 0,0 -45.29927,5.14768 -67.9489,-8.23625 -22.64963,-13.38385 -51.47643,-36.03344 -75.15559,-26.76771 -23.67911,9.26573 -43.36265,12.6872 -46.32877,25.73823 -5.14767,22.64966 -4.11812,67.94889 -4.11812,67.94889 z" style="color:#000000;fill:#ffffff;stroke:#000000;stroke-width:2" role="button" aria-label="Change color"></path>
    <path d="m 331.85002,84.77419 c -29.85114,0 -54.04606,23.03039 -54.04606,51.46005 0,23.46043 16.4725,43.25759 39.0079,49.46075 -4.11117,16.22264 -15.50178,70.79039 0.10869,68.95382 17.50198,-2.05902 18.53688,-35.00931 18.53688,-35.00931 0,0 25.7246,60.72856 31.90176,23.6655 6.17715,-37.06305 0,-46.30966 0,-46.30966 0,0 54.57583,44.26969 37.07383,16.47243 -17.50198,-27.79732 -25.73002,-36.05249 -25.73002,-36.05249 0,0 80.30041,50.45776 60.73937,12.36522 -13.45448,-26.20081 -40.54989,-34.86828 -56.15404,-37.72577 1.68644,-4.98168 2.60777,-10.3046 2.60777,-15.82049 0,-28.42966 -24.19494,-51.46005 -54.04608,-51.46005 z" style="color:#000000;fill:#ffffff;stroke:#000;stroke-width:2" role="button" aria-label="Change color"></path>
    <path d="m 447.83396,222.4714 c 0,0 90.59853,-9.2658 76.18513,7.2067 -14.41341,16.47244 -55.59455,20.59056 -55.59455,20.59056 0,0 50.4469,4.11813 28.8268,17.50198 -21.6201,13.38392 -54.05026,1.02948 -54.05026,1.02948 0,0 56.10932,8.23625 34.48921,27.79726 -21.6201,19.56107 -65.88983,-15.44289 -65.88983,-15.44289 0,0 12.35434,26.76771 -4.11812,21.62011 -16.47246,-5.14767 -28.82677,-43.24021 -28.82677,-43.24021" style="color:#000000;fill:none;stroke:#000000;stroke-width:2" role="button" aria-label="Change color"></path>
    <path d="m 84.386864,478.67957 a 13.324242,17.025419 0 1 1 -26.648484,0 13.324242,17.025419 0 1 1 26.648484,0 z" transform="matrix(0.57950504,0,0,0.51399577,272.13633,-109.28093)" style="color:#000000;fill:#000000;stroke:none;stroke-width:2" role="button" aria-label="Change color"></path>
    <path d="m 325.7037,458.69321 a 30.349661,26.648483 0 1 1 -60.69933,0 30.349661,26.648483 0 1 1 60.69933,0 z" transform="matrix(0.69540605,0,0,0.69540605,118.22183,-184.7935)" style="color:#000000;fill:#ffffff;stroke:#000;stroke-width:2" role="button" aria-label="Change color"></path>
    <path d="m 84.386864,478.67957 a 13.324242,17.025419 0 1 1 -26.648484,0 13.324242,17.025419 0 1 1 26.648484,0 z" transform="matrix(0.57950504,0,0,0.51399577,272.13633,-109.28093)" style="color:#000000;fill:#000000;stroke:none;stroke-width:2" role="button" aria-label="Change color"></path>
    <path d="m 88.59375,271.625 c -19.53655,0 -35.375,17.38414 -35.375,38.78125 0,4.09199 0.58271,8.01608 1.65625,11.71875 -2.914301,2.80678 -5.495305,6.0663 -7.75,9.65625 -5.479977,7.02829 -13.431623,17.3583 -19.71875,26.25 l -20.6875,-1.8125 c 1.751846,2.72265 6.318696,5.6655 9.84375,13.15625 0.518003,1.10076 1.094195,2.16889 1.71875,3.21875 -0.03116,0.078 -0.06613,0.17576 -0.09375,0.25 -3.625257,9.74325 5.78125,17.9375 5.78125,17.9375 0,0 3.484234,-1.1244 7.59375,-3.1875 7.411118,6.41145 15.728726,11.99669 22.09375,17.59375 7.39372,7.26553 17.93062,13 29.03125,13 24.65325,0 44.65625,-24.10503 44.65625,-53.875 0,-12.28779 -3.42364,-23.65229 -9.15625,-32.71875 3.64952,-6.09503 5.78125,-13.35422 5.78125,-21.1875 0,-21.39711 -15.83847,-38.78125 -35.375,-38.78125 z" transform="translate(58.973931,-16.979413)" style="color:#000000;fill:#ffffff;stroke:#000;stroke-width:2" role="button" aria-label="Change color"></path>
    <path d="m 110.0625,406.40625 c -6.3168,5.19377 -4.21597,3.22733 -11.375,8 3.6497,16.70439 -9.53225,15.72982 -10.09375,21.90625 18.57339,0.10049 22.67291,5.40491 38.625,16.09375 12.68705,-0.68841 -5.45597,-16.06804 -12.65625,-14.25 7.88242,-3.00461 19.73855,-1.66175 22.875,-9.84375 -10.24724,-2.5267 -21.33164,0 -32,0 1.12298,-8.42241 3.50202,-13.48385 4.625,-21.90625 z m -52.96875,2.65625 c -3.29878,16.38856 -10.8135,21.19857 -11.375,27.375 13.92815,0.4406 37.37606,20.20043 43.0625,6.59375 -6.5123,-3.57521 -10.76953,-4.76638 -17.8125,-7 7.86089,-3.36897 14.27142,-1.7026 17.5,-10.125 -10.24724,-2.5267 -22.83164,4.21875 -33.5,4.21875 3.22858,-8.0013 9.50958,-6.93471 14.84375,-14.09375 -14.25748,-7.88321 -7.66532,-3.95076 -12.71875,-6.96875 z" transform="translate(58.973931,-16.979413)" style="color:#000000;fill:#ffffff;stroke:#000000;stroke-width:2" role="button" aria-label="Change color"></path>
    <path d="m 131.23514,291.23998 c -9.63268,-0.99766 -10.56239,-7.47228 -13.05664,-16.22061 -0.6522,-2.4279 -1.13223,-4.90074 -1.46558,-7.392 8.98964,-3.34764 21.8174,-1.57023 26.65342,4.55909 3.00177,11.75232 -0.99904,18.07711 -12.1312,19.05352 z" style="color:#000000;fill:#ffffff;stroke:#000000;stroke-width:2" role="button" aria-label="Change color"></path>
    <path d="m 137.68384,689.64673 a 8.1425924,14.064477 0 1 1 -16.28519,0 8.1425924,14.064477 0 1 1 16.28519,0 z" transform="matrix(1.0602211,0,0,0.56889916,18.438615,-123.35657)" style="color:#000000;fill:#ffffff;stroke:black;stroke-width:2" role="button" aria-label="Change color"></path>
    <path d="m 141.38501,694.45825 a 6.6621208,7.0322385 0 1 1 -13.32425,0 6.6621208,7.0322385 0 1 1 13.32425,0 z" transform="matrix(0.56889916,0,0,0.56889916,80.190043,-123.35657)" style="color:#000000;fill:#000000;stroke:none;stroke-width:2" role="button" aria-label="Change color"></path>
    <path d="m 583.6875,325.40625 c -19.98999,0 -36.21875,18.28888 -36.21875,40.8125 0,0.26982 0.0271,0.51267 0.0312,0.78125 -9.33877,1.70333 -18.75168,-8.90786 -27.5625,-11.4375 0,0 -25.04213,-5.23514 -40.75,-20.71875 0,0 -1.70663,10.13133 2,30.90625 0.17039,3.38128 -0.59185,6.34228 -5.84375,6 -10.43486,-0.68007 5.26781,11.5646 10.90625,15.90625 0.11461,0.4081 0.25697,0.8058 0.375,1.21875 -4.08261,0.94388 -10.84375,13.625 -10.84375,13.625 0,0 3.78987,6.43606 18.4375,7.03125 11.93519,22.28025 28.20239,12.2735 50.53125,6.875 15.9594,-3.85854 21.56316,-9.5116 23.53125,-13.28125 4.66691,2.47121 9.90833,3.875 15.40625,3.875 19.98999,0 36.1875,-18.25765 36.1875,-40.78125 0,-22.52362 -16.19751,-40.8125 -36.1875,-40.8125 z" transform="translate(58.973931,-16.979413)" style="color:#000000;fill:#ffffff;stroke:black;stroke-width:2" role="button" aria-label="Change color"></path>
    <path d="m 545.875,416.25 c -2.41159,1.14565 -6.68336,1.43144 -8.375,3.125 0.93043,9.71807 2.5686,19.43829 3.5,29.15625 1.55623,3.50096 5.128,4.7817 8.03125,6.34375 3.8966,1.80312 8.04308,3.17736 12.25,3.34375 3.35394,-1.75387 -1.67005,-4.80626 -3.125,-6.15625 -1.64229,-1.16481 -3.39948,-2.15404 -5.21875,-2.9375 0.55097,0.11943 1.11632,0.25066 1.65625,0.375 3.00438,0.40827 6.30496,0.97144 9.125,-0.59375 2.42551,-1.31219 1.98365,-5.35927 -0.3125,-6.53125 -2.77158,-1.85081 -6.01114,-2.4936 -9.15625,-2.90625 5.50539,0.49195 11.10791,1.10371 16.59375,0.15625 3.71482,-2.05942 -1.95875,-4.86775 -3.875,-5.4375 -6.74074,-2.02444 -13.81244,0.11433 -20.15625,2.875 -2.67451,1.97761 -0.8241,-3.63117 -1.28125,-5.375 0.10985,-5.14328 0.23385,-10.29426 0.34375,-15.4375 z m -22.03125,5.84375 c -4.03534,1.32598 -10.06202,-0.80247 -12.96875,1.84375 -0.20221,5.80337 -3.52376,13.46332 -0.71875,18.84375 2.33241,4.3542 2.89428,9.7442 5.6875,13.75 1.61638,3.84989 8.18299,5.1059 6.625,-0.84375 -1.23587,-2.94056 -2.46295,-5.97949 -4.125,-8.65625 2.26962,3.02449 5.04269,5.95609 8.0625,3 1.86026,-4.01179 -2.02403,-7.39788 -4.78125,-9.03125 -3.74579,-2.59842 3.15924,1.67406 4.5625,2.34375 3.45216,1.8779 7.05133,3.5059 10.84375,4.1875 3.42062,-2.58085 -1.019,-7.20365 -3.5,-8.34375 -5.38356,-2.96282 -12.26963,-0.40867 -17.03125,-5.09375 -2.52321,-5.07783 3.75925,-6.79463 6.09375,-9.375 0.60965,-0.72663 1.06263,-1.63099 1.25,-2.625 z" transform="translate(58.973931,-16.979413)" style="color:#000000;fill:#ffffff;stroke:#000000;stroke-width:2" role="button" aria-label="Change color"></path>
    <path d="m 438.21949,1555.7224 a 38.492252,41.453197 0 1 1 -76.98451,0 38.492252,41.453197 0 1 1 76.98451,0 z" transform="matrix(0.32618101,0,0,0.37459032,529.96098,-223.79361)" style="color:#000000;fill:#ffffff;stroke:black;stroke-width:2" role="button" aria-label="Change color"></path>
    <path d="m 414.53194,1573.488 a 13.324242,14.804713 0 1 1 -26.64848,0 13.324242,14.804713 0 1 1 26.64848,0 z" transform="matrix(0.32618101,0,0,0.37459032,529.96098,-223.79361)" style="color:#000000;fill:#000000;stroke:none;stroke-width:2" role="button" aria-label="Change color"></path>
    <path d="m 662.87974,383.04271 31.27261,6.97674 -16.77794,-29.35851 c -0.059,0.22767 -0.1007,0.46464 -0.16309,0.69067 -0.35253,1.27701 -0.75507,2.52608 -1.21299,3.7459 -0.45791,1.21978 -0.97174,2.41453 -1.52897,3.57029 -0.55723,1.15577 -1.15371,2.27474 -1.80419,3.35963 -0.65047,1.08485 -1.35194,2.13007 -2.0896,3.13719 -0.73765,1.00709 -1.51545,1.9805 -2.33423,2.90308 -0.81878,0.92254 -1.67484,1.79095 -2.56867,2.62213 -0.89383,0.83114 -1.83011,1.61995 -2.79293,2.35288 z" style="color:#000000;fill:#ffffff;stroke:#000000;stroke-width:2" role="button" aria-label="Change color"></path>
    <path d="m 190.3125,412.09375 c -1.83413,7.6222 -3.29174,15.37551 -3.6875,23.21875 -4.86296,2.19934 -9.94702,4.29522 -13.90625,7.96875 -1.62792,2.75422 2.53107,4.19958 4.59375,3.125 3.48709,-0.74476 6.32223,-3.01191 9.25,-4.90625 0.71502,1.63736 0.51165,3.57401 1.5,5.125 1.09204,2.09081 3.14685,3.80881 5.5,4.1875 2.83528,-0.52982 1.84366,-4.18952 1.9375,-6.28125 0.95436,-0.88179 2.41558,1.66567 3.59375,2.03125 3.03027,2.14741 6.17847,4.40922 9.78125,5.40625 2.90359,-0.47909 1.47247,-4.2103 0.40625,-5.84375 -2.60108,-4.91033 -7.51576,-8.06983 -12.5,-10.1875 -1.8869,-0.19256 -1.11013,-2.50211 -1.25,-3.78125 l 0,-14.84375 c -1.73571,-1.73577 -3.48304,-3.48298 -5.21875,-5.21875 z m 44.28125,2.125 c -1.83346,7.6199 -3.29236,15.34649 -3.6875,23.1875 -4.52878,2.04145 -9.24581,4.00806 -13.09375,7.21875 -2.23715,1.2834 -1.23165,4.22255 1.3125,4.09375 3.72152,0.20843 6.99202,-1.96851 9.96875,-3.9375 0.91192,-0.50583 2.26782,-2.24871 2.0625,-0.21875 0.34601,2.70413 1.31065,5.57738 3.78125,7.0625 1.19473,1.00672 3.70022,2.26657 4.53125,0.21875 0.6363,-1.86866 0.19367,-3.87512 0.3125,-5.8125 3.86516,2.85543 7.72921,5.93265 12.25,7.6875 2.49411,1.3915 3.57316,-1.53712 2.40625,-3.40625 -2.06667,-6.05458 -7.76151,-9.88904 -13.40625,-12.28125 -1.31585,-0.0932 -1.36151,-1.04051 -1.25,-2.09375 l 0,-16.53125 c -1.73573,-1.7357 -3.45178,-3.45181 -5.1875,-5.1875 z" transform="translate(58.973931,-16.979413)" style="color:#000000;fill:#ffffff;stroke:#000000;stroke-width:2" role="button" aria-label="Change color"></path>
    <path d="m 202.0625,297.4375 c -17.41617,0 -31.5625,15.93709 -31.5625,35.625 0,4.03835 0.62407,7.91209 1.71875,11.53125 -1.42281,1.7482 -2.74834,3.58561 -3.9375,5.5 -8.62285,-4.03684 -22.81117,-8.67965 -29.09375,0.5 -5.10139,7.45378 0.33635,11.16731 6.3125,13.03125 -5.84211,-0.0855 -12.20496,1.79566 -13.46875,10.0625 C 129.60331,389.56944 157,383.71875 157,383.71875 c 0,0 -35.436,9.11327 -20.375,19.5625 8.40019,5.82801 21.07028,3.10791 30.65625,-0.4375 9.3477,16.39248 27.42527,27.5 48.1875,27.5 27.69995,0 50.57806,-19.75377 54.375,-45.46875 8.61125,0.40087 17.80667,-0.88047 23.28125,-6.78125 12.46747,-13.43809 -24.09375,-14.75 -24.09375,-14.75 0,0 27.99864,-0.16545 22.21875,-15.15625 -2.99596,-7.77035 -9.57819,-8.254 -15.25,-6.9375 5.41295,-3.10413 9.84204,-7.92862 3.28125,-14.09375 -9.04014,-8.49497 -23.99306,1.94237 -30.90625,7.6875 -4.5816,-3.31224 -9.71882,-5.9385 -15.25,-7.75 -2.52272,-16.83214 -15.45439,-29.65625 -31.0625,-29.65625 z" transform="translate(58.973931,-16.979413)" style="color:#000000;fill:#ffffff;stroke:black;stroke-width:2" role="button" aria-label="Change color"></path>
    <g transform="matrix(0.62005244,0,0,0.62005244,98.56286,192.51389)">
      <path d="m 325.7037,458.69321 a 30.349661,26.648483 0 1 1 -60.69933,0 30.349661,26.648483 0 1 1 60.69933,0 z" transform="matrix(0.66607253,0,0,0.66607253,79.275484,-119.58622)" style="color:#000000;fill:#ffffff;stroke:black;stroke-width:2" role="button" aria-label="Change color"></path>
      <path d="m 84.386864,478.67957 a 13.324242,17.025419 0 1 1 -26.648484,0 13.324242,17.025419 0 1 1 26.648484,0 z" transform="matrix(0.55506044,0,0,0.49231448,226.69762,-47.2589)" style="color:#000000;fill:#000000;stroke:none;stroke-width:2" role="button" aria-label="Change color"></path>
    </g>
    <g transform="matrix(0.62005244,0,0,0.62005244,71.801834,196.19065)" style="stroke-width:2;stroke-miterlimit:4;stroke-dasharray:none">
      <path d="m 325.7037,458.69321 a 30.349661,26.648483 0 1 1 -60.69933,0 30.349661,26.648483 0 1 1 60.69933,0 z" transform="matrix(0.66607253,0,0,0.66607253,79.275484,-119.58622)" style="color:#000000;fill:#ffffff;stroke:black;stroke-width:2" role="button" aria-label="Change color"></path>
      <path d="m 84.386864,478.67957 a 13.324242,17.025419 0 1 1 -26.648484,0 13.324242,17.025419 0 1 1 26.648484,0 z" transform="matrix(0.55506044,0,0,0.49231448,226.69762,-47.2589)" style="color:#000000;fill:#000000;stroke:none;stroke-width:2" role="button" aria-label="Change color"></path>
    </g>
    <path d="m 261.04228,327.77561 c -7.12896,3.01653 -9.1658,10.85969 -9.1658,10.85969 0,0 13.2395,12.66964 13.2395,10.25636 0,-2.41328 11.20265,-9.04976 11.20265,-9.04976 -3.55034,-5.63839 -8.74571,-14.43987 -15.27635,-12.06629 z" style="color:#000000;fill:#ffffff;stroke:#000000;stroke-width:2" role="button" aria-label="Change color"></path>
  </g>
</svg>