<svg width="400px" height="400px" xmlns="http://www.w3.org/2000/svg" xmlns:xlink="http://www.w3.org/1999/xlink" viewBox="0 0 112.66777 104.2638">
  <title>Train</title>
  <g transform="translate(-9.739196,-18.312914)" class="shapes">
    <path d="m 33.244436,47.663547 0,-10.075287 6.513006,0 c 5.629197,0 6.540668,0.07209 6.716858,0.531232 0.112119,0.292178 0.203853,4.826057 0.203853,10.075287 l 0,9.544056 -6.716858,0 -6.716859,0 0,-10.075288 z" style="color:#000000;fill:#ffffff;stroke:#000000;stroke-width:1" role="button" aria-label="Change color"></path>
    <path d="m 85.300089,55.891699 0,-5.877251 6.381015,0 6.381016,0 0,5.877251 0,5.877251 -6.381016,0 -6.381015,0 0,-5.877251 z" style="color:#000000;fill:#ffffff;stroke:#000000;stroke-width:1" role="button" aria-label="Change color"></path>
    <path d="M 70.964759,33.219958 C 69.856566,32.773457 69.515472,31.827111 69.515472,29.199 c 0,-2.087877 0.103676,-2.491922 0.824341,-3.212587 l 0.824342,-0.824341 20.942121,0 c 20.403564,0 20.960464,0.01709 21.655494,0.664608 1.47923,1.378112 1.37943,5.849464 -0.15754,7.058447 -0.83567,0.657336 -1.33386,0.672522 -21.380692,0.65173 C 80.93474,33.525148 71.368289,33.382544 70.964759,33.219958 z" style="color:#000000;fill:#ffffff;stroke:#000000;stroke-width:1" role="button" aria-label="Change color"></path>
    <path d="m 73.755181,85.769212 c -0.311308,-0.811256 -0.24406,-47.606696 0.06912,-48.100019 0.211353,-0.332922 4.013009,-0.404335 17.878493,-0.335843 l 17.610066,0.08699 0,24.348612 0,24.348612 -4.12843,0.09441 c -3.79222,0.08673 -4.32555,0.02052 -6.54894,-0.812801 -2.07279,-0.776888 -2.927087,-0.906315 -5.946859,-0.900952 -2.888932,0.0051 -3.89059,0.148302 -5.541408,0.792045 -1.761416,0.686873 -2.717895,0.800845 -7.598754,0.90546 -4.916112,0.10537 -5.608755,0.05438 -5.79329,-0.426514 l 0,0 z m 30.666369,-17.430198 1.02911,-0.986401 0,-11.477951 0,-11.47795 -0.84437,-0.844378 c -0.46441,-0.464408 -1.31451,-0.938404 -1.88912,-1.053326 -0.57461,-0.114921 -5.640146,-0.208947 -11.256755,-0.208947 -10.954206,0 -11.883597,0.122844 -13.001214,1.718465 -0.479499,0.68458 -0.547656,2.163486 -0.547656,11.883173 0,9.713024 0.06839,11.198918 0.546853,11.882027 1.146872,1.637388 1.819425,1.716959 13.788851,1.631377 l 11.145191,-0.07969 1.02911,-0.986402 z" style="color:#000000;fill:#ffffff;stroke:#000000;stroke-width:1" role="button" aria-label="Change color"></path>
    <path d="m 19.481495,86.189953 c -1.602047,-0.810596 -1.675589,-1.361841 -1.680882,-12.599218 -0.0052,-11.0101 0.124342,-12.084597 1.521389,-12.620694 0.299009,-0.114741 11.570602,-0.20862 25.047984,-0.20862 l 24.504331,0 0.82434,0.824342 0.824343,0.824342 -0.01068,11.182042 c -0.01149,12.042155 -0.0051,11.997054 -1.801726,12.680132 -1.43371,0.545095 -48.143456,0.466982 -49.229099,-0.08233 z" style="color:#000000;fill:#ffffff;stroke:#000000;stroke-width:1" role="button" aria-label="Change color"></path>
    <path d="m 92.6875,88.34375 c -3.319338,-0.01559 -6.627448,1.269943 -9.1875,3.84375 -6.683106,6.719012 -4.001357,18.27403 4.96875,21.375 3.361477,1.16207 7.945833,0.65008 10.90625,-1.21875 7.12072,-4.49511 8.29659,-14.06103 2.46875,-20.0625 -2.522534,-2.597684 -5.836912,-3.921907 -9.15625,-3.9375 z m -0.28125,5.6875 c 1.941137,-0.08287 3.905338,0.485333 5.28125,1.75 1.103419,1.014205 2.373,3.856857 2.375,5.28125 0.004,3.3334 -2.378815,6.57356 -5.4375,7.34375 -1.905486,0.4798 -2.363036,0.46637 -4.28125,-0.125 C 85.380633,106.75116 83.658696,100.07986 87.25,96.25 c 1.29272,-1.378589 3.215113,-2.135884 5.15625,-2.21875 z M 33.46875,94.375 c -1.179301,0.0041 -1.794905,0.198289 -3,0.75 -3.899837,1.785404 -6.162553,5.46516 -5.875,9.625 0.310491,4.49169 3.474,8.23406 7.6875,9.0625 2.063802,0.40578 2.255908,0.39776 4.34375,-0.0937 6.108352,-1.438 9.4928,-8.48509 6.65625,-13.875 C 41.481319,96.423637 38.715323,94.635735 34.875,94.4063 34.318039,94.37302 33.86185,94.37368 33.46875,94.37505 z M 61,94.375 c -1.179301,0.0041 -1.794905,0.198289 -3,0.75 -3.899836,1.785404 -6.162553,5.46516 -5.875,9.625 0.310492,4.49169 3.473999,8.23406 7.6875,9.0625 2.063801,0.40578 2.255908,0.39776 4.34375,-0.0937 6.108352,-1.438 9.4928,-8.48509 6.65625,-13.875 C 69.012569,96.423637 66.246573,94.635735 62.40625,94.4063 61.849289,94.372975 61.3931,94.373628 61,94.375 z m -26.53125,4 c 2.067345,0.02263 4.127899,1.065264 5.125,3.125 0.861993,1.78065 0.874226,3.32606 0.0625,5.09375 -0.756003,1.64634 -1.607707,2.46564 -3.28125,3.0625 -1.609893,0.57447 -2.288288,0.54564 -3.90625,-0.0312 -3.46187,-1.23432 -4.856526,-4.88136 -3.15625,-8.25 1.028432,-2.037564 3.088905,-3.022632 5.15625,-3 z M 62,98.375 c 2.067345,0.02263 4.127898,1.065264 5.125,3.125 0.861992,1.78065 0.905475,3.32606 0.09375,5.09375 -0.756004,1.64634 -1.638957,2.46564 -3.3125,3.0625 -1.609892,0.57447 -2.288288,0.54564 -3.90625,-0.0312 -3.461869,-1.23432 -4.856525,-4.88136 -3.15625,-8.25 1.028432,-2.037564 3.088905,-3.022632 5.15625,-3 z" style="color:#000000;fill:#ffffff;stroke:#000000;stroke-width:1" role="button" aria-label="Change color"></path>
    <path d="m 32.53125,89.65625 c -12.804048,0.03495 -13.521384,0.161526 -14.09375,0.625 -0.731286,0.592159 -0.822822,0.918679 -0.9375,4.53125 -0.143447,4.518816 0.09305,6.03055 1,6.9375 1.202636,1.20264 1.881575,0.84606 2.5,-1.28125 1.142501,-3.930064 3.778476,-7.058284 7.46875,-8.875 1.750132,-0.861587 2.664312,-1.097798 4.96875,-1.21875 4.478194,-0.235045 7.337076,0.788481 10.46875,3.75 1.851189,1.750607 3.479728,4.480927 3.9375,6.59375 l 0.25,1.15625 0.59375,-1.84375 c 1.142259,-3.677242 3.750076,-6.665282 7.34375,-8.4375 C 57.766083,90.738219 58.698479,90.495799 61,90.375 c 4.478194,-0.235045 7.337075,0.788481 10.46875,3.75 1.761412,1.66571 3.73939,4.955225 3.75,6.1875 0.0044,0.50844 0.06661,0.5226 0.34375,0.0937 0.179058,-0.27707 0.34095,-0.991097 0.34375,-1.5625 0.01046,-2.112932 1.851,-6.345974 3.625,-8.28125 l 0.84375,-0.90625 -30.5625,0 c -7.392354,0 -13.013234,-0.01165 -17.28125,0 z m 72.53125,0 0.875,1.03125 c 1.68597,2.003668 3.53125,6.497019 3.53125,8.5625 0,0.602473 0.12651,1.33444 0.25,1.65625 0.50364,1.31246 0.82253,-1.131593 0.71875,-5.5 -0.10074,-4.240254 -0.15588,-4.518125 -0.90625,-5.125 -0.56451,-0.456568 -1.31506,-0.625 -2.625,-0.625 l -1.84375,0 z" style="color:#000000;fill:#ffffff;stroke:#000000;stroke-width:1" role="button" aria-label="Change color"></path>
    <path d="m 92.875,94.21875 c -4.493142,0.02361 -7.28125,2.741094 -7.28125,7.0625 0,3.44464 2.057204,6.17344 5.3125,7 3.441029,0.87371 6.459334,-0.58544 8.21875,-4 0.98852,-1.91846 0.93249,-4.08581 -0.1875,-6.375 -1.253981,-2.563045 -3.137683,-3.70287 -6.0625,-3.6875 z m -58.25,4.375 c -0.251952,-0.0089 -0.499397,0.01184 -0.75,0.03125 -1.559309,0.12078 -3.068768,0.777765 -3.9375,2 -2.174549,3.05941 -1.153226,7.22423 2.125,8.6875 1.240859,0.55384 3.670767,0.60005 4.65625,0.0937 3.195974,-1.64197 4.282196,-5.60405 2.34375,-8.5625 -0.928489,-1.41705 -2.673839,-2.187463 -4.4375,-2.25 z M 62.03125,98.625 c -2.911239,0 -4.769107,1.38897 -5.53125,4.15625 -0.714983,2.59604 0.612997,5.42394 3.09375,6.53125 1.241749,0.55426 3.671564,0.60089 4.65625,0.0937 5.460727,-2.8124 3.819514,-10.7812 -2.21875,-10.7812 z" style="color:#000000;fill:#ffffff;stroke:#000000;stroke-width:1" role="button" aria-label="Change color"></path>
    <path d="M 80.094523,68.840003 C 79.725096,68.688799 79.130294,68.23986 78.772742,67.842359 78.157156,67.157997 78.122646,66.522251 78.122646,55.866339 l 0,-11.253292 0.909207,-0.909611 0.909207,-0.909611 11.31023,-0.09707 c 8.108245,-0.06959 11.58036,0.01483 12.26441,0.298168 1.93734,0.802472 1.93496,0.78648 1.93496,13.00468 l 0,11.209189 -1.04304,0.97435 -1.04305,0.974351 -11.299179,-0.02129 C 85.850841,69.124493 80.463951,68.991204 80.094523,68.84 z m 17.967597,-12.948304 0,-5.877251 -6.381016,0 -6.381015,0 0,5.877251 0,5.877251 6.381015,0 6.381016,0 0,-5.877251 z" style="color:#000000;fill:#ffffff;stroke:#000000;stroke-width:1" role="button" aria-label="Change color"></path>
    <path d="m 90.337733,122.012 c -4.143318,-0.47834 -8.64949,-2.56747 -11.812073,-5.47624 l -2.075549,-1.90897 -2.040038,2.03377 c -6.711109,6.69048 -17.447127,6.94781 -24.408986,0.58507 l -1.81199,-1.65606 -1.79194,1.60497 c -5.651798,5.0621 -13.459185,6.07531 -20.292831,2.63351 -2.914393,-1.46785 -6.154368,-4.83157 -7.645369,-7.93737 -0.989708,-2.06159 -1.354472,-2.50128 -2.433111,-2.93287 -1.858758,-0.74372 -4.085899,-2.95809 -4.992962,-4.96432 -0.744911,-1.64759 -0.793688,-2.14762 -0.793688,-8.136484 0,-4.654108 0.119429,-6.59041 0.441297,-7.154744 0.353135,-0.619153 0.364518,-1.256546 0.05698,-3.190507 -0.25023,-1.573555 -0.345611,-6.237248 -0.273377,-13.366686 l 0.110943,-10.949907 1.17545,-2.286197 c 2.082093,-4.049573 4.965545,-5.536088 10.738583,-5.536088 l 3.36682,0 0,-8.221355 c 0,-9.235211 0.156797,-10.073699 2.316048,-12.385325 2.219164,-2.375766 3.094201,-2.566924 11.733237,-2.563201 7.279763,0.0031 7.6866,0.03775 9.305524,0.791616 0.931114,0.433585 2.107962,1.281564 2.615215,1.884399 1.923366,2.285793 2.02119,2.828316 2.166201,12.013832 l 0.133873,8.480034 6.015525,0 6.015527,0 0,-6.592193 0,-6.592193 -1.213289,-1.342968 c -2.208016,-2.444009 -2.649455,-3.887081 -2.644773,-8.645807 0.0038,-3.889837 0.06943,-4.321317 0.893577,-5.877252 1.05904,-1.999386 2.580718,-3.500725 4.6437,-4.581636 l 1.511293,-0.79185 21.976076,-0.09561 c 25.204304,-0.109661 24.245364,-0.203742 27.410754,2.689252 2.47853,2.265235 3.17259,4.185526 3.17259,8.777794 0,4.498837 -0.55548,6.143716 -2.888,8.551908 l -1.77556,1.833166 -0.0409,23.881491 c -0.0275,16.045275 0.0765,24.266461 0.31672,25.054722 0.60029,1.969487 0.45492,11.378209 -0.20748,13.429229 -0.5992,1.85532 -2.74531,4.54566 -4.2823,5.36823 -0.52129,0.27898 -1.37778,1.39627 -2.05448,2.68006 -2.66161,5.04942 -7.41238,8.85046 -12.768938,10.2163 -2.188443,0.55802 -6.032075,0.88848 -7.868329,0.67648 l 0,0 z m -51.813151,-8.9289 c 4.531811,-2.12878 6.873348,-7.46187 5.28831,-12.04466 -0.800968,-2.315834 -2.518148,-4.394789 -4.53709,-5.492972 -2.492398,-1.355714 -6.192829,-1.60544 -8.522043,-0.575121 -2.353881,1.041234 -3.97002,2.463213 -5.08293,4.472269 -0.880156,1.588884 -0.989939,2.105604 -0.986357,4.642544 0.0033,2.33641 0.147054,3.12903 0.79185,4.36596 1.424112,2.7319 3.788437,4.67346 6.592664,5.41384 1.587628,0.41916 4.701726,0.042 6.455596,-0.78186 z m 27.53912,6.7e-4 c 4.941015,-2.31917 7.149783,-8.34505 4.819715,-13.148982 -1.685774,-3.475585 -4.451813,-5.277802 -8.468672,-5.517785 -2.215015,-0.132333 -2.81345,-0.04 -4.365958,0.673643 -2.432034,1.117934 -3.657917,2.220093 -4.837163,4.348968 -0.882017,1.592296 -0.991616,2.107606 -0.988033,4.645626 0.0034,2.33641 0.147056,3.12903 0.791851,4.36595 1.424111,2.73191 3.788435,4.67347 6.592663,5.41384 1.587073,0.41902 4.701358,0.0421 6.455597,-0.78126 z m 32.089068,-0.0133 c 1.131697,-0.52207 2.65616,-1.63146 3.66471,-2.6669 6.34754,-6.51678 4.32094,-17.126479 -4.017966,-21.034918 -1.660515,-0.778363 -2.352103,-0.90016 -5.110881,-0.90016 -2.867497,0 -3.41161,0.104783 -5.374447,1.035004 -5.435584,2.576009 -8.506733,8.357669 -7.407476,13.945094 0.966835,4.91433 4.024073,8.5209 8.699477,10.26264 0.808995,0.30138 2.316033,0.42255 4.418289,0.35524 2.605694,-0.0834 3.545698,-0.266 5.128294,-0.99608 l 0,8e-5 z M 21.279864,100.31333 c 1.359523,-4.039395 3.550659,-6.624287 7.235964,-8.536291 2.007075,-1.041308 4.422835,-1.376926 7.698563,-1.069549 3.178065,0.298212 5.540608,1.482038 7.905354,3.96123 1.989242,2.085511 2.994863,3.81886 3.592478,6.1922 l 0.394784,1.56783 0.712904,-2.11818 c 1.358572,-4.036561 3.550561,-6.621957 7.235037,-8.533531 2.007074,-1.041308 4.422833,-1.376926 7.698561,-1.069549 5.31245,0.498492 9.681505,4.280966 11.494532,9.9513 l 0.612326,1.91507 0.01807,-1.69261 c 0.03434,-3.21852 1.65398,-7.69494 3.640544,-10.061887 l 0.845613,-1.007529 -3.325537,-0.167922 c -1.829044,-0.09236 -15.686447,-0.117283 -30.79423,-0.05539 -27.415882,0.112312 -27.469958,0.113887 -28.126844,0.818973 -0.589479,0.632721 -0.658162,1.203298 -0.658162,5.467546 0,4.268229 0.07023,4.850389 0.678378,5.623519 0.574951,0.73093 1.870427,1.3043 2.30206,1.01888 0.06918,-0.0457 0.446998,-1.03759 0.839607,-2.20411 l 0,0 z m 89.208446,-4.329523 c 0,-6.079509 -0.13794,-6.339895 -3.35843,-6.339895 -1.10828,0 -2.01506,0.09153 -2.01506,0.2034 0,0.111873 0.3862,0.66237 0.85821,1.223328 1.84399,2.191456 3.49006,6.709017 3.50279,9.61325 0.004,0.96845 0.078,1.07202 0.50872,0.71452 0.40648,-0.33735 0.50377,-1.38296 0.50377,-5.414603 l 0,0 z M 68.81765,86.244268 c 0.626942,-0.218553 1.212726,-0.72187 1.39349,-1.197313 0.171522,-0.451141 0.31186,-5.750162 0.31186,-11.775603 0,-10.785888 -0.01128,-10.967371 -0.730226,-11.732639 l -0.73023,-0.777292 -24.909705,0 c -24.89566,0 -24.910063,3.36e-4 -25.549479,0.706802 -0.602573,0.665698 -0.639777,1.366709 -0.639777,12.054913 0,10.57877 0.04221,11.394764 0.622638,12.036292 0.34245,0.378498 1.022532,0.749621 1.511293,0.824719 0.48876,0.0751 11.407373,0.159183 24.263585,0.18686 16.540646,0.03561 23.691169,-0.05992 24.456551,-0.326739 l 0,0 z m 18.457497,-0.74326 c 3.477388,-1.255176 7.342598,-1.256355 10.826972,-0.0034 2.036901,0.732511 3.197311,0.913073 6.508941,1.012812 2.28794,0.0689 4.24788,-0.02079 4.53388,-0.207501 0.44008,-0.287303 0.50376,-3.388403 0.50376,-24.534064 0,-21.150295 -0.0636,-24.24538 -0.50376,-24.52364 -0.71495,-0.451949 -34.103694,-0.433871 -34.949746,0.01893 -0.633003,0.338825 -0.649607,0.965059 -0.649607,24.499896 0,22.64441 0.03669,24.174111 0.587725,24.503355 0.362938,0.216853 2.514476,0.308549 5.625369,0.239741 4.444985,-0.09831 5.329266,-0.216686 7.516466,-1.006165 z m -40.675957,-37.7535 -0.08896,-9.991327 -6.632898,-0.09106 -6.632898,-0.09106 0,10.082388 0,10.082387 6.721856,0 6.721856,0 -0.08896,-9.991327 z m 67.07787,-14.94501 c 1.73046,-1.493901 1.45818,-6.623166 -0.38887,-7.325412 -0.48343,-0.1838 -9.48246,-0.315014 -21.604574,-0.315014 l -20.776022,0 -0.696061,0.884898 c -0.552116,0.701904 -0.696061,1.36626 -0.696061,3.212587 0,2.569448 0.346398,3.516037 1.449286,3.960401 0.403532,0.162586 9.981937,0.30519 21.285345,0.316899 l 20.551647,0.02129 0.87531,-0.755647 0,0 z" style="color:#000000;fill:#ffffff;stroke:#000000;stroke-width:1" role="button" aria-label="Change color"></path>
  </g>
</svg>