<svg width="340" height="430" stroke="gray" fill="white" stroke-width="1"><path d="M 169 201 C 198 236 252 314 137 438 L 170 438 C 180 448 288 284 179 200 L 169 201 "></path><path d="M 160 170 C 208 -10 378 43 160 170 " transform="rotate(0, 160, 170)"></path><path d="M 160 170 C 208 -10 378 43 160 170 " transform="rotate(36, 160, 170)"></path><path d="M 160 170 C 208 -10 378 43 160 170 " transform="rotate(72, 160, 170)"></path><path d="M 160 170 C 208 -10 378 43 160 170 " transform="rotate(108, 160, 170)"></path><path d="M 160 170 C 208 -10 378 43 160 170 " transform="rotate(144, 160, 170)"></path><path d="M 160 170 C 208 -10 378 43 160 170 " transform="rotate(180, 160, 170)"></path><path d="M 160 170 C 208 -10 378 43 160 170 " transform="rotate(216, 160, 170)"></path><path d="M 160 170 C 208 -10 378 43 160 170 " transform="rotate(252, 160, 170)"></path><path d="M 160 170 C 208 -10 378 43 160 170 " transform="rotate(288, 160, 170)"></path><path d="M 160 170 C 208 -10 378 43 160 170 " transform="rotate(324, 160, 170)"></path></svg>