<svg width="400" height="400" stroke="gray" fill="white" stroke-width="1"><path d="M 61 151 L 261 151 Q 261 151 261 151 L 261 302 Q 261 302 261 302 L 61 302 Q 61 302 61 302 L 61 151 Q 61 151 61 151 "></path><path d="M 33 151 L 291 151 L 227 85 L 80 86 L 33 151 "></path><path d="M 101 200 L 156 200 Q 156 200 156 200 L 156 301 Q 156 301 156 301 L 101 301 Q 101 301 101 301 L 101 200 Q 101 200 101 200 "></path><path d="M 196 178 L 241 178 Q 241 178 241 178 L 241 208 Q 241 208 241 208 L 196 208 Q 196 208 196 208 L 196 178 Q 196 178 196 178"></path><path d="M 25 40 C 25 27 36 16 49 16 C 62 16 73 27 73 40 C 73 53 62 64 49 64 C 36 64 25 53 25 40 "></path><path d="M 189 21 L 214 21 Q 214 21 214 21 L 214 85 Q 214 85 214 85 L 189 85 Q 189 85 189 85 L 189 21 Q 189 21 189 21 "></path></svg>