<svg width="400px" height="400px" xmlns="http://www.w3.org/2000/svg" xmlns:xlink="http://www.w3.org/1999/xlink" viewBox="0 0 294.275 294.343">
<title>Pizza</title>
  <g>
    <g>
	<path d="m 147.706,0.067 c 1.894,0 3.787,0 5.682,0 9.702,3.174 18.554,7.2 21.587,17.043 40.445,-17.262 45.035,30.309 79.533,32.95 5.352,9.799 15.13,15.17 13.636,31.813 6.798,7.594 16.372,12.412 21.588,21.588 -0.202,10.806 -0.404,21.613 4.545,27.269 0,4.545 0,9.09 0,13.635 -96.523,45.502 -173.007,111.047 -276.098,149.978 -2.271,0 -4.545,0 -6.817,0 C 8.115,288.121 2.22,284.548 0,277.3 c 0,-2.271 0,-4.545 0,-6.816 0.488,-13.215 5.952,-19.678 9.09,-30.679 3.296,-11.556 4.7,-24.88 6.817,-37.494 2.292,-13.653 1.688,-29.438 5.681,-39.767 2.494,-6.455 10.077,-9.91 13.634,-15.907 10.752,-18.126 13.975,-40.632 23.86,-56.811 4.331,-0.849 7.476,5.329 7.954,-1.136 -0.072,-7.918 -2.03,-13.243 0,-20.452 C 73.454,65.272 79.443,62.074 80.67,54.603 82.21,45.22 73.558,33.744 76.125,23.926 78.259,15.768 89.021,10.438 97.713,9.155 c 8.21,-1.213 16.156,4.114 23.861,3.408 11.514,-1.052 14.78,-13.584 26.132,-12.496 z m 10.226,5.681 C 135.266,1.261 132.628,16.803 119.302,21.655 109.627,8.1 80.134,13.048 80.67,31.88 c 2.307,6.025 8.482,8.181 6.816,18.18 12.466,-3.442 23.456,-8.359 36.359,-11.362 8.956,12.695 22.297,4.001 35.221,5.681 8.834,1.148 17.807,11.939 27.271,14.771 16.326,4.884 31.666,4.363 44.312,12.498 5.612,6.61 4.297,13.984 10.227,20.452 7.138,7.787 16.979,7.908 21.587,17.043 4.55,9.021 3.894,19.845 17.044,19.315 C 293.814,112.672 277.437,90.472 263.6,85.283 266.408,59.328 245.127,44.002 218.152,47.788 222.472,24.042 190.587,12.305 171.568,25.064 172.448,13.199 163.774,10.89 157.932,5.748 z M 78.398,69.375 c 4.125,0.041 8.97,-0.637 10.227,2.272 0,2.272 0,4.545 0,6.817 -3.989,1.693 -10.069,1.294 -14.771,2.272 -1.413,3.511 -1.769,8.078 -2.271,12.498 39.257,21.768 4.585,90.946 -40.903,67.036 -10.596,13.267 -8.539,45.237 -11.362,62.489 5.837,-5.522 9.445,-13.276 11.362,-22.723 9.392,1.971 13.417,9.308 15.907,18.178 -8.873,7.416 -22.947,9.627 -31.814,17.045 -2.433,13.476 -9.416,22.396 -9.089,38.632 9.885,-8.476 18.248,-5.302 31.813,-7.953 17.971,-3.513 25.478,-23.278 37.495,-27.271 3.783,-1.256 8.95,0.545 12.498,0 23.897,-3.666 28.093,-26.418 44.312,-39.767 3.183,0.604 5.907,1.667 9.09,2.271 22.82,-8.357 47.945,-23.188 69.31,-37.493 6.648,-4.454 21.007,-20.24 23.86,-12.499 7.319,-11.238 29.566,-7.549 34.085,-21.587 -3.29,-4.664 -8.12,-7.785 -11.361,-12.499 3.835,-11.832 -7.598,-17.092 -18.179,-18.179 -5.42,-7.079 -7.081,-17.917 -12.499,-24.997 -14.569,-1.885 -27.381,-11.02 -43.176,-7.953 -12.42,-8.789 -24.578,-17.841 -48.855,-14.771 -5.166,-1.652 -6.434,-7.203 -12.498,-7.953 -13.963,9.148 -35.927,10.286 -43.181,26.135 z m -7.954,7.954 c 6.04,-0.399 13.912,1.035 14.771,-4.545 -5.977,0.295 -10.586,-0.776 -14.771,-2.272 0,2.272 0,4.544 0,6.817 z m -9.089,17.043 c -9.233,20.308 -18.158,40.924 -26.133,62.491 39.294,23.142 73.549,-53.779 26.133,-62.491 z m 207.924,42.039 c -15.718,12.862 -35.521,18.872 -54.536,28.405 -12.008,6.018 -24.092,16.762 -37.495,23.859 -14.914,7.9 -32.403,11.466 -44.312,18.181 -11.024,6.218 -15.767,20.247 -23.86,28.405 -10.598,5.385 -22.454,5.992 -32.95,10.225 -13.038,5.26 -22.085,18.896 -36.358,23.861 -12.532,4.357 -24.31,2.251 -32.95,13.634 4.408,7.62 10.209,5.503 17.043,3.41 21.554,-6.604 40.803,-15.479 57.946,-24.996 59.827,-33.211 112.92,-67.992 173.838,-101.124 11.384,-6.189 39.656,-16.375 32.951,-29.542 -3.344,0.471 -11.152,6.252 -19.317,5.682 z M 19.315,228.444 c 7.793,-3.946 15.111,-8.37 23.86,-11.362 -4.521,-3.435 -5.029,-10.877 -10.226,-13.635 -0.977,11.9 -8.299,17.455 -13.634,24.997 z"></path>
	<path d="m 171.566,25.063 c 19.019,-12.759 50.904,-1.022 46.584,22.724 26.977,-3.786 48.255,11.54 45.448,37.495 13.837,5.189 30.214,27.39 15.907,43.175 -13.15,0.529 -12.494,-10.294 -17.044,-19.315 -4.606,-9.135 -14.449,-9.256 -21.587,-17.043 -5.93,-6.468 -4.613,-13.842 -10.227,-20.452 C 218.001,63.512 202.662,64.033 186.335,59.149 176.871,56.317 167.898,45.527 159.064,44.378 146.14,42.698 132.799,51.392 123.843,38.697 110.94,41.7 99.949,46.617 87.484,50.059 89.15,40.06 82.974,37.905 80.668,31.879 80.132,13.046 109.625,8.099 119.299,21.653 c 13.326,-4.852 15.964,-20.394 38.63,-15.907 5.845,5.144 14.519,7.453 13.637,19.317 z" style="fill:#cbb676"></path>
	<path d="m 164.749,56.877 c 4.04,2.398 8.469,4.408 11.361,7.954 -2.295,6.038 -7.977,8.688 -10.227,14.771 -3.491,-0.295 -5.108,-2.465 -7.953,-3.409 0.642,-8.07 4.969,-12.456 6.819,-19.316 z m 0,19.315 c 1.186,-4.496 5.627,-5.735 5.681,-11.362 -2.257,-0.015 -1.445,-3.1 -4.545,-2.272 -1.405,3.067 -6.345,11.076 -1.136,13.634 z"></path>
	<path d="m 144.297,61.422 c 13.621,6.95 4.042,29.119 -3.408,35.222 -1.146,-9.489 5.87,-20.634 3.408,-35.222 z" style="fill:#5d9732"></path>
	<path d="m 165.885,62.558 c 3.1,-0.828 2.288,2.258 4.545,2.272 -0.054,5.626 -4.495,6.866 -5.681,11.362 -5.209,-2.558 -0.269,-10.567 1.136,-13.634 z" style="fill:#fbf290"></path>
	<path d="m 70.444,70.511 c 4.186,1.496 8.795,2.568 14.771,2.272 -0.859,5.58 -8.731,4.146 -14.771,4.545 0,-2.272 0,-4.544 0,-6.817 z" style="fill:#fbf290"></path>
	<path d="m 130.664,78.465 c -0.901,17.923 -26.326,26.021 -43.177,17.043 -6.996,-21.45 30.052,-29.74 43.177,-17.043 z M 92.032,90.963 c 11.802,8.289 30.259,0.109 32.948,-11.362 -8.657,-8.086 -34.93,-5.112 -32.948,11.362 z"></path>
	<path d="m 124.981,79.601 c -2.689,11.471 -21.146,19.65 -32.948,11.362 -1.983,-16.474 24.29,-19.448 32.948,-11.362 z m -24.995,5.681 c 0.362,2.667 3.517,2.543 4.545,4.544 6.829,-1.125 10.89,-5.017 13.634,-10.226 -6.86,-2.923 -17.715,-3.519 -18.179,5.682 z" style="fill:#8a7967"></path>
	<path d="m 209.061,75.056 c 13.987,0.025 18.065,9.962 17.044,24.997 3.291,3.905 7.62,6.771 11.362,10.226 0,-2.272 0,-4.544 0,-6.817 6.184,1.012 9.931,4.46 17.041,4.545 -2.744,7.858 -5.793,15.414 -9.088,22.724 -4.176,-0.369 -6.286,-2.803 -10.227,-3.408 -0.458,-5.382 2.027,-7.819 1.137,-13.635 -2.076,1.711 -2.674,4.901 -4.545,6.817 -5.265,-2.312 -10.356,-4.793 -14.771,-7.954 -5.355,0.704 -6.966,5.155 -12.499,5.681 -0.607,-16.515 0.705,-31.11 4.546,-43.176 z m 1.136,38.631 c -0.769,-7.521 24.84,-29.398 1.137,-34.086 -1.291,9.053 -7.056,25.355 -1.137,34.086 z m 7.953,-4.545 c 5.125,1.314 6.698,6.181 13.636,5.681 2.711,-7.299 -6.998,-9.85 -11.362,-13.634 -0.952,2.457 -2.943,3.875 -2.274,7.953 z m 24.998,17.044 c 1.651,-4.786 3.854,-9.023 4.545,-14.771 -2.377,-0.653 -3.243,-2.817 -6.817,-2.272 -0.061,5.731 -6.149,16.023 2.272,17.043 z"></path>
	<path d="m 118.164,79.601 c -2.744,5.208 -6.806,9.101 -13.634,10.226 -1.028,-2.001 -4.183,-1.877 -4.545,-4.544 0.465,-9.202 11.32,-8.606 18.179,-5.682 z"></path>
	<path d="m 211.333,79.601 c 23.703,4.688 -1.904,26.564 -1.137,34.086 -5.918,-8.731 -0.153,-25.033 1.137,-34.086 z" style="fill:#e9d3a2"></path>
	<path d="m 128.392,109.142 c -6.41,3.817 -11.273,9.179 -18.181,12.499 -5.815,-1.38 -7.215,-7.176 -11.361,-10.226 7.573,-7.641 24.882,-19.605 29.542,-2.273 z m -23.861,2.273 c 2.513,0.896 2.844,3.975 4.545,5.681 5.384,-2.57 9.898,-6.007 13.634,-10.226 -6.64,-5.653 -13.492,1.451 -18.179,4.545 z"></path>
	<path d="m 220.423,101.189 c 4.364,3.785 14.073,6.335 11.362,13.634 -6.938,0.5 -8.511,-4.367 -13.636,-5.681 -0.668,-4.078 1.323,-5.496 2.274,-7.953 z" style="fill:#fbf290"></path>
	<path d="m 122.709,106.87 c -3.734,4.218 -8.25,7.656 -13.634,10.226 -1.701,-1.707 -2.032,-4.785 -4.545,-5.681 4.688,-3.094 11.54,-10.198 18.179,-4.545 z" style="fill:#fbf290"></path>
	<path d="m 240.875,109.142 c 3.574,-0.544 4.44,1.619 6.817,2.272 -0.691,5.748 -2.894,9.985 -4.545,14.771 -8.42,-1.019 -2.332,-11.311 -2.272,-17.043 z" style="fill:#fbf290"></path>
	<path d="m 53.401,120.504 c 1.137,0 2.272,0 3.409,0 0.824,3.475 -1.96,3.342 -1.136,6.817 -4.297,0.975 -4.021,-5.086 -2.273,-6.817 z"></path>
	<path d="m 151.115,138.684 c -12.146,3.35 -29.249,0.775 -37.495,4.545 -9.448,12.452 -21.946,26.858 -43.177,23.86 12.181,-14.332 29.77,-23.254 37.494,-42.041 2.722,1.447 4.627,3.706 4.545,7.953 4.62,-2.576 2.802,-11.592 9.092,-12.498 9.446,6.462 19.917,11.897 29.541,18.181 z m -36.358,1.136 c 6.332,-5.432 20.37,-1.305 28.404,-3.409 -9.177,-2.186 -14.741,-7.982 -21.587,-12.498 -1.71,5.865 -6.259,8.891 -6.817,15.907 z m -32.95,23.86 c 10.888,-8.052 32.229,-11.699 26.132,-32.95 -4.449,14.491 -20.103,23.825 -26.132,32.95 z"></path>
	<path d="m 121.574,123.913 c 6.846,4.516 12.41,10.312 21.587,12.498 -8.034,2.104 -22.072,-2.023 -28.404,3.409 0.558,-7.016 5.107,-10.042 6.817,-15.907 z" style="fill:#e9d3a2"></path>
	<path d="m 288.596,130.73 c 6.705,13.167 -21.567,23.352 -32.951,29.542 -60.918,33.131 -114.011,67.913 -173.838,101.124 -17.145,9.516 -36.394,18.391 -57.946,24.996 -6.833,2.093 -12.635,4.21 -17.043,-3.41 8.641,-11.383 20.417,-9.275 32.95,-13.634 14.273,-4.964 23.321,-18.603 36.358,-23.861 10.496,-4.231 22.353,-4.84 32.95,-10.225 8.095,-8.158 12.836,-22.188 23.86,-28.405 11.907,-6.715 29.396,-10.279 44.312,-18.18 13.403,-7.1 25.487,-17.842 37.495,-23.86 19.017,-9.534 38.818,-15.543 54.536,-28.405 8.165,0.569 15.973,-5.212 19.317,-5.682 z" style="fill:#e7d8ac"></path>
	<path d="m 65.9,131.866 c 3.265,0.145 5.396,1.421 4.544,5.681 -4.425,-2.9 -6.587,2.306 -4.544,6.817 -5.124,-2.072 -0.371,-8.917 0,-12.498 z"></path>
	<path d="m 31.813,169.361 c 4.569,1.87 10.202,2.678 14.771,4.545 -1.537,8.311 -6.296,13.396 -9.09,20.452 -5.054,0.509 -8.282,-0.81 -11.362,-2.272 2.469,-7.001 3.031,-15.909 5.681,-22.725 z m 2.273,20.451 c 4.745,-2.072 6.393,-7.241 6.816,-13.635 -3.326,0.298 -3.49,-2.567 -6.816,-2.271 -0.264,3.937 -5.611,13.511 0,15.906 z"></path>
	<path d="m 113.62,201.173 c -6.569,2.904 -12.692,2.117 -17.043,-2.271 0.322,4.601 1.949,7.897 2.271,12.498 5.272,-3.438 11.603,-5.819 15.907,-10.228 3.476,22.677 -36.431,47.957 -48.857,23.859 8.155,-0.554 13.978,-3.441 20.452,-5.68 -6.175,-1.23 -18.487,1.189 -27.269,1.135 0.893,-6.301 3.214,-11.177 4.545,-17.042 -6.158,4.056 -19.995,4.628 -21.588,-5.681 -4.475,-28.943 91.952,-40.017 71.582,3.41 z m -2.272,-19.314 c -12.169,-15.854 -90.336,2.27 -57.946,22.725 4.825,-1.236 6.944,-5.178 10.227,-7.953 7.48,3.684 0.741,14.558 0,20.451 11.271,-0.092 21.274,-1.449 31.812,-2.272 -0.682,-7.363 -5.798,-20.302 3.409,-21.588 6.27,17.528 19.695,-1.988 12.498,-11.363 z m -39.767,46.585 c 15.594,9.372 32.656,-8.817 36.357,-18.18 -8.454,9.726 -23.344,13.014 -36.357,18.18 z"></path>
	<path d="m 34.086,173.906 c 3.326,-0.296 3.491,2.57 6.816,2.272 -0.424,6.394 -2.071,11.562 -6.816,13.634 -5.611,-2.395 -0.264,-11.969 0,-15.906 z" style="fill:#fbf290"></path>
	<path d="m 98.85,193.221 c -9.207,1.286 -4.09,14.225 -3.409,21.588 -10.538,0.823 -20.543,2.183 -31.812,2.272 0.741,-5.895 7.48,-16.769 0,-20.451 -3.282,2.775 -5.401,6.717 -10.227,7.953 -32.39,-20.455 45.777,-38.578 57.946,-22.725 7.197,9.376 -6.228,28.892 -12.498,11.363 z" style="fill:#c5c19d"></path>
	<path d="m 102.334,166.167 c 5.299,-4.594 9.725,-13.155 15.121,-17.301 2.232,1.428 4.466,2.857 6.697,4.286 -2.465,6.849 -6.27,13.989 -10.947,21.323 -1.139,-3.313 -7.302,-5.526 -10.871,-8.308 z m 10.45,2.644 c 2.772,-5.544 7.661,-11.554 4.746,-15.849 -3.358,3.433 -6.302,8.77 -9.876,11.216 2.269,1.421 1.764,3.452 5.13,4.633 z"></path>
	<path d="m 107.655,164.177 c 3.574,-2.446 6.518,-7.783 9.876,-11.215 2.915,4.295 -1.974,10.305 -4.746,15.849 -3.367,-1.181 -2.862,-3.212 -5.13,-4.634 z" style="fill:#fbf290"></path>
	<path d="m 32.95,203.447 c 5.196,2.758 5.707,10.2 10.226,13.635 -8.75,2.992 -16.067,7.416 -23.86,11.362 5.334,-7.542 12.656,-13.097 13.634,-24.997 z" style="fill:#e9d3a2"></path>
	<path d="m 107.938,210.264 c -3.701,9.362 -20.764,27.552 -36.357,18.18 13.013,-5.166 27.903,-8.454 36.357,-18.18 z" style="fill:#5d9732"></path>
	<path d="m 57.946,229.58 c 0.912,24.016 -15.119,31.086 -37.494,31.815 -20.089,-18.179 17.343,-43.22 37.494,-31.815 z m -38.631,20.453 c 4.016,12.932 36.781,0.387 32.95,-17.043 -11.192,-9.074 -36.678,5.033 -32.95,17.043 z"></path>
	<path d="m 52.265,232.99 c 3.832,17.43 -28.935,29.975 -32.95,17.043 -3.728,-12.01 21.758,-26.117 32.95,-17.043 z m -24.996,13.633 c 8.025,1.776 18.282,-2.517 18.18,-12.498 -9.394,-2.668 -18.298,2.169 -18.18,12.498 z" style="fill:#8a7967"></path>
	<path d="m 45.448,234.125 c 0.103,9.981 -10.154,14.274 -18.18,12.498 -0.117,-10.329 8.787,-15.166 18.18,-12.498 z"></path>
	<path d="m 121.574,43.243 c 6.064,0.75 7.331,6.301 12.497,7.953 24.278,-3.07 36.438,5.982 48.856,14.771 15.795,-3.067 28.605,6.068 43.176,7.953 5.418,7.079 7.079,17.917 12.499,24.997 10.581,1.087 22.014,6.348 18.178,18.179 3.242,4.713 8.072,7.835 11.362,12.499 -4.519,14.038 -26.766,10.35 -34.085,21.587 -2.854,-7.741 -17.212,8.044 -23.861,12.499 -21.362,14.307 -46.487,29.136 -69.309,37.494 -3.183,-0.604 -5.907,-1.668 -9.09,-2.271 -16.219,13.35 -20.414,36.102 -44.312,39.766 -3.547,0.545 -8.715,-1.256 -12.499,0 -12.017,3.992 -19.522,23.76 -37.494,27.271 -13.565,2.65 -21.929,-0.521 -31.813,7.953 -0.327,-16.234 6.657,-25.156 9.089,-38.631 8.867,-7.42 22.941,-9.629 31.814,-17.045 -2.491,-8.871 -6.516,-16.207 -15.907,-18.178 -1.917,9.444 -5.524,17.199 -11.362,22.723 2.823,-17.254 0.767,-49.223 11.362,-62.49 45.488,23.91 80.161,-45.269 40.903,-67.036 0.503,-4.42 0.858,-8.987 2.271,-12.498 4.702,-0.979 10.782,-0.579 14.771,-2.272 0,-2.272 0,-4.545 0,-6.817 -1.257,-2.909 -6.103,-2.231 -10.227,-2.272 7.259,-15.852 29.223,-16.99 43.181,-26.135 z m 12.498,62.491 c 19.805,-3.909 32.929,-45.188 5.683,-51.129 -1.498,3.522 3.366,6.302 0,7.954 -5.513,-15.794 -39.664,-16.889 -42.041,2.272 19.583,-1.782 32.151,3.451 43.175,10.226 -0.535,11.214 -7.278,22.25 -6.817,30.677 z m 23.86,-29.542 c 2.845,0.943 4.462,3.114 7.953,3.409 2.25,-6.083 7.932,-8.732 10.227,-14.771 -2.894,-3.545 -7.321,-5.556 -11.361,-7.954 -1.852,6.861 -6.179,11.247 -6.819,19.316 z M 87.488,95.508 c 16.851,8.978 42.275,0.88 43.177,-17.043 C 117.539,65.768 80.491,74.058 87.488,95.508 z m 117.028,22.724 c 5.533,-0.526 7.144,-4.978 12.499,-5.681 4.414,3.16 9.507,5.642 14.771,7.954 1.871,-1.916 2.469,-5.106 4.545,-6.817 0.892,5.815 -1.595,8.253 -1.137,13.635 3.939,0.605 6.051,3.039 10.227,3.408 3.295,-7.31 6.344,-14.866 9.088,-22.724 -7.11,-0.084 -10.857,-3.533 -17.041,-4.545 0,2.272 0,4.545 0,6.817 -3.742,-3.454 -8.071,-6.321 -11.362,-10.226 1.021,-15.035 -3.057,-24.971 -17.044,-24.997 -3.842,12.066 -5.154,26.661 -4.546,43.176 z M 98.85,111.415 c 4.146,3.05 5.546,8.846 11.361,10.226 6.906,-3.32 11.771,-8.681 18.181,-12.499 -4.66,-17.332 -21.969,-5.368 -29.542,2.273 z m 22.724,9.089 c -6.29,0.906 -4.472,9.922 -9.092,12.498 0.082,-4.247 -1.823,-6.506 -4.545,-7.953 -7.726,18.785 -25.313,27.708 -37.494,42.041 21.229,2.998 33.729,-11.409 43.177,-23.86 8.246,-3.77 25.349,-1.195 37.495,-4.545 -9.624,-6.285 -20.095,-11.72 -29.541,-18.181 z m -95.441,71.581 c 3.08,1.463 6.309,2.779 11.362,2.271 2.794,-7.055 7.553,-12.143 9.09,-20.451 -4.569,-1.869 -10.202,-2.676 -14.771,-4.546 -2.651,6.818 -3.213,15.726 -5.681,22.726 z m 15.907,5.681 c 1.593,10.308 15.43,9.735 21.588,5.681 -1.331,5.865 -3.652,10.741 -4.545,17.043 8.782,0.055 21.094,-2.367 27.269,-1.136 -6.475,2.237 -12.296,5.126 -20.452,5.681 12.427,24.096 52.333,-1.185 48.857,-23.859 -4.306,4.406 -10.635,6.789 -15.907,10.227 -0.323,-4.602 -1.95,-7.898 -2.271,-12.498 4.351,4.389 10.474,5.176 17.043,2.271 20.368,-43.43 -76.059,-32.356 -71.582,-3.41 z m 71.165,-23.29 c 4.679,-7.334 8.482,-14.475 10.947,-21.323 -2.231,-1.429 -4.465,-2.858 -6.697,-4.286 -5.396,4.146 -9.822,12.707 -15.121,17.301 3.569,2.781 9.732,4.994 10.871,8.308 z M 20.452,261.395 C 42.827,260.666 58.857,253.593 57.946,229.58 37.795,218.175 0.363,243.216 20.452,261.395 z" style="fill:#b5121b"></path>
	<path d="M 140.889,75.056 C 129.866,68.281 117.296,63.048 97.714,64.83 c 2.377,-19.161 36.528,-18.066 42.041,-2.272 3.366,-1.651 -1.498,-4.432 0,-7.954 27.246,5.942 14.122,47.22 -5.682,51.129 -0.462,-8.426 6.281,-19.462 6.816,-30.677 z m -1.135,-6.817 c -4.914,-9.993 -25.743,-19.261 -35.224,-7.954 13.57,0.073 26.634,6.687 35.224,7.954 z m 1.135,28.405 c 7.45,-6.104 17.029,-28.272 3.408,-35.222 2.462,14.588 -4.554,25.733 -3.408,35.222 z"></path>
	<path d="m 104.531,60.286 c 9.48,-11.308 30.31,-2.04 35.224,7.954 -8.591,-1.268 -21.655,-7.882 -35.224,-7.954 z" style="fill:#5d9732"></path>
	<path d="m 107.938,130.73 c 6.099,21.251 -15.244,24.898 -26.132,32.95 6.03,-9.125 21.684,-18.459 26.132,-32.95 z" style="fill:#5d9732"></path>
	<path d="m 35.222,156.863 c 7.975,-21.567 16.898,-42.184 26.133,-62.491 47.416,8.712 13.161,85.633 -26.133,62.491 z m 20.452,-29.541 c -0.824,-3.476 1.96,-3.342 1.136,-6.817 -1.136,0 -2.271,0 -3.409,0 -1.748,1.73 -2.024,7.791 2.273,6.817 z M 65.9,144.365 c -2.043,-4.512 0.119,-9.718 4.544,-6.817 0.852,-4.26 -1.279,-5.537 -4.544,-5.681 -0.371,3.58 -5.124,10.425 0,12.498 z" style="fill:#f9b4a6"></path>
</g>
    <path d="m 214.574,158.188 c -29.684,14.519 -60.734,27.242 -90.446,41.724 -23.661,-55.765 63.986,-81.977 90.446,-41.724 z m -88.411,35.117 c 27.931,-11.074 54.861,-23.458 81.654,-36.025 -26.466,-30.311 -95.952,-10.45 -81.654,36.025 z" transform="translate(6.8329481e-6,0)" style="display:inline;overflow:visible"></path>
    <path d="m 167.58,149.578 c 2.468,1.231 0.158,7.118 -3.01,5.327 -0.477,-3.718 1.558,-4.142 3.01,-5.327 z" transform="translate(6.8329481e-6,0)" style="display:inline;overflow:visible"></path>
    <path d="m 159.227,169.089 c 1.126,0.152 2.252,0.304 3.377,0.455 -0.483,3.779 -1.01,7.506 -5.412,6.15 -0.352,-3.549 1.704,-3.948 2.035,-6.605 z" transform="translate(6.8329481e-6,0)" style="display:inline;overflow:visible"></path>
    <path d="m 207.818,157.28 c -26.793,12.568 -53.725,24.951 -81.654,36.025 -14.299,-46.475 55.187,-66.336 81.654,-36.025 z m -43.247,-2.375 c 3.168,1.791 5.478,-4.096 3.01,-5.327 -1.453,1.185 -3.488,1.609 -3.01,5.327 z m -7.38,20.79 c 4.402,1.355 4.929,-2.371 5.412,-6.15 -1.125,-0.151 -2.251,-0.303 -3.377,-0.455 -0.33,2.656 -2.386,3.055 -2.035,6.605 z" transform="translate(6.8329481e-6,0)" style="fill:#f9b4a6;display:inline;overflow:visible"></path>
    <path d="m 198.897,104.701 c -3.38,4.584 -10.895,2.327 -14.739,0.933 -2.584,7.816 3.36,11.472 6.304,16.591 -9.469,5.024 -18.749,10.432 -30.293,11.2 0.608,-6.148 1.399,-16.512 -6.674,-15.517 -0.586,2.636 -4.056,8.189 -7.996,9.264 -2.506,-0.862 -5.015,-1.726 -7.521,-2.589 -7.286,-22.59 63.561,-53.281 60.919,-19.882 z" transform="translate(6.8329481e-6,0)" style="fill:#c5c19d;display:inline;overflow:visible"></path>
    <path d="m 202.861,103.663 c 8.021,-20.041 -22.946,-16.423 -35.083,-13.281 -17.349,4.492 -31.275,14.343 -35.876,30.907 4.925,11.713 20.074,9.126 25.148,0.248 -0.361,6.137 -0.078,11.957 1.268,17.259 11.871,-6.816 25.933,-9.146 37.181,-17.24 -3.778,-4.116 -7.113,-8.448 -9.933,-13.033 8.588,2.879 14.887,1.159 17.295,-4.86 z" transform="translate(6.8329481e-6,0)" style="fill:#c5c19d;display:inline;overflow:visible"></path>
    <path d="m 185.566,108.522 c 2.818,4.585 6.153,8.917 9.933,13.033 -11.248,8.094 -25.31,10.423 -37.181,17.24 -1.346,-5.302 -1.629,-11.123 -1.268,-17.259 -5.074,8.878 -20.225,11.466 -25.148,-0.248 4.601,-16.564 18.527,-26.416 35.876,-30.907 12.137,-3.142 43.104,-6.76 35.083,13.281 -2.408,6.02 -8.707,7.74 -17.295,4.86 z m -47.588,16.061 c 2.507,0.863 5.016,1.727 7.521,2.589 3.94,-1.074 7.41,-6.628 7.996,-9.264 8.073,-0.995 7.282,9.369 6.674,15.517 11.544,-0.768 20.824,-6.176 30.293,-11.2 -2.942,-5.119 -8.888,-8.774 -6.304,-16.591 3.846,1.394 11.359,3.651 14.739,-0.933 2.642,-33.399 -68.205,-2.708 -60.919,19.882 z" transform="translate(6.8329481e-6,0)" style="display:inline;overflow:visible"></path>
    <path d="m 191.968,130.916 c 6.152,18.724 38.938,22.147 45.211,1.85 -9.635,-17.132 -38.677,-18.094 -45.211,-1.85 z" transform="translate(6.8329481e-6,0)" style="display:inline;overflow:visible"></path>
    <path d="m 237.179,132.766 c -6.271,20.297 -39.059,16.874 -45.211,-1.85 6.534,-16.244 35.576,-15.282 45.211,1.85 z m -39.955,-4.004 c 3.3,15.069 30.389,17.353 33.911,3.043 -5.163,-12.403 -26.507,-13.555 -33.911,-3.043 z" transform="translate(6.8329481e-6,0)" style="display:inline;overflow:visible"></path>
    <path d="m 231.135,131.805 c -3.522,14.31 -30.611,12.026 -33.911,-3.043 7.404,-10.512 28.748,-9.36 33.911,3.043 z m -26.309,-2.475 c 2.015,7.297 14.128,8.442 17.733,1.326 -2.316,-8.185 -16.753,-7.761 -17.733,-1.326 z" transform="translate(6.8329481e-6,0)" style="fill:#8a7967;display:inline;overflow:visible"></path>
    <path d="m 222.561,130.656 c -3.605,7.116 -15.72,5.971 -17.733,-1.326 0.978,-6.435 15.415,-6.859 17.733,1.326 z" transform="translate(6.8329481e-6,0)" style="display:inline;overflow:visible"></path>
  </g>
  <g class="shapes">
    <path d="m 61.375,94.3125 -3.25,7.1875 c -3.937475,8.71834 -9.564071,21.75316 -13.40625,31.0625 -3.344945,8.10457 -9.533317,24.17428 -9.375,24.3125 0.06024,0.0526 1.184839,0.62215 2.5,1.28125 2.990486,1.49868 6.39658,2.51008 9.46875,2.8125 3.056526,0.30088 8.128196,-0.17216 10.65625,-1 7.353221,-2.40791 14.134427,-7.92512 19.03125,-15.4375 4.86524,-7.46394 7.28685,-15.25258 7.28125,-23.59375 -0.0053,-7.87183 -2.299102,-13.9186 -7.125,-18.78125 -3.43524,-3.461407 -7.373765,-5.591174 -13.125,-7.125 L 61.375,94.3125 z m -6.34375,26.375 c 2.268112,0 2.422224,0.42879 1.15625,3.21875 -0.429828,0.94725 -0.77645,2.13607 -0.78125,2.625 -0.01214,1.24364 -1.312403,1.1549 -2.34375,-0.15625 -0.912408,-1.15994 -1.055891,-2.57394 -0.40625,-4.4375 0.406953,-1.16743 0.557813,-1.25 2.375,-1.25 z m 11.1875,11.375 c 0.126124,0.0544 0.696872,0.0937 1.25,0.0937 1.55735,0 2.9375,1.65494 2.9375,3.5 l 0,1.53125 L 68.6875,137 c -1.527824,-0.17221 -1.79896,-0.0702 -2.59375,0.9375 -0.760882,0.96466 -0.882849,1.48712 -0.75,3.59375 0.08565,1.35813 0.03595,2.46875 -0.125,2.46875 -0.674769,0 -1.53565,-1.8655 -1.53125,-3.34375 0.0048,-1.61903 2.112766,-8.774 2.53125,-8.59375 z m 106.125,11 c -7.57124,0.006 -12.83685,0.85871 -19.4375,3.15625 -16.40748,5.71107 -26.90894,17.35078 -28.3125,31.34375 -0.4782,4.7675 0.0246,10.09665 1.375,14.75 0.11036,0.38028 0.33697,0.6875 0.5,0.6875 0.48044,0 20.42917,-8.24959 30.28125,-12.53125 18.54726,-8.06054 50.49604,-22.8006 50.6875,-23.375 0.15511,-0.4653 -3.87696,-4.06049 -6.75,-6.03125 -7.908,-5.42447 -17.07905,-8.009 -28.34375,-8 z m -4.6875,6.5625 c 0.32048,-0.01 0.50737,0.29933 0.75,0.9375 0.47642,1.25306 0.17239,2.5968 -0.84375,3.6875 -0.46299,0.49697 -1.2677,0.8125 -2,0.8125 -1.2091,0 -1.22053,0.005 -1,-1.65625 0.16709,-1.25895 0.55969,-1.96663 1.53125,-2.78125 0.79927,-0.67013 1.24202,-0.99017 1.5625,-1 z m -7.71875,19.5625 c 0.2374,-0.01 0.54685,-0.006 0.9375,0.0312 1.42942,0.13631 1.59375,0.2829 1.59375,1.21875 0,1.67098 -0.71659,3.65602 -1.65625,4.65625 -0.95889,1.02069 -2.74929,1.23548 -3.4375,0.40625 -0.48937,-0.58966 -0.18653,-1.79527 1.09375,-4.625 0.59323,-1.31118 0.75656,-1.65762 1.46875,-1.6875 z" transform="translate(-3.4164743e-6,0)" style="color:#000000;fill:#ffffff" role="button" aria-label="Change color"></path>
    <path d="m 183.46875,90.125 c -9.48449,0.226377 -21.93399,4.716368 -32.1875,11.90625 -3.80231,2.66621 -8.74378,7.466 -10.6875,10.375 -2.32487,3.47943 -3.54877,8.45295 -2.78125,11.3125 0.32898,1.22572 7.29462,3.60338 8.6875,2.96875 1.83694,-0.83697 4.3868,-3.62491 5.6875,-6.1875 1.22312,-2.40974 1.39959,-2.5625 2.65625,-2.5625 2.12238,0 3.63771,1.02505 4.59375,3.09375 0.74012,1.6015 0.84375,2.54497 0.84375,7.09375 l 0,5.25 2.1875,-0.25 c 3.77818,-0.45449 9.30578,-2.03256 13.71875,-3.90625 5.01096,-2.12759 13.63498,-6.60097 13.8125,-7.15625 0.0679,-0.21248 -1.13048,-2.06065 -2.65625,-4.125 -3.14659,-4.25728 -4.17812,-6.91696 -3.78125,-9.8125 0.13575,-0.99039 0.39572,-1.98947 0.59375,-2.1875 0.21669,-0.21669 1.13304,-0.0877 2.28125,0.3125 2.59682,0.90506 7.15445,1.24471 8.9375,0.65625 2.62119,-0.86507 3.4375,-1.83204 3.4375,-4 0,-6.369759 -3.42192,-10.849743 -9.3125,-12.21875 -1.80671,-0.41989 -3.84252,-0.614741 -6.03125,-0.5625 z m -91.0625,85.75 c -12.062782,-0.2127 -27.219191,2.79636 -36.96875,7.84375 -7.136826,3.69477 -10.356563,7.65301 -9.71875,11.90625 0.383525,2.55753 3.682159,6.62179 6.78125,8.3125 1.195817,0.65235 1.322388,0.63763 2.875,-0.0625 0.895406,-0.40377 3.091891,-2.11217 4.875,-3.8125 1.783109,-1.70033 3.466441,-3.093 3.71875,-3.09375 0.252308,-7.4e-4 0.90612,0.51885 1.46875,1.1875 0.915304,1.08777 1.150592,1.66474 1.59375,3.96875 0.228516,1.18807 -0.581825,5.01397 -1.96875,9.4375 -0.760079,2.42424 -1.375,4.68996 -1.375,5.03125 0,0.54652 0.652883,0.60451 5.4375,0.375 5.780291,-0.27727 23.791183,-1.74814 25.28125,-2.0625 1.11382,-0.23499 1.137439,-0.76323 0.09375,-6.09375 -0.446651,-2.28122 -0.83815,-5.70805 -0.84375,-7.59375 -0.01446,-4.8841 1.093275,-6.87966 4.125,-7.625 0.989103,-0.24317 1.128213,-0.13486 1.8125,1.4375 0.41193,0.94654 1.35663,2.40786 2.09375,3.25 1.15133,1.31536 1.62496,1.57273 3.3125,1.71875 1.49929,0.12973 2.24784,-0.0463 3.21875,-0.65625 3.13445,-1.969 5.57662,-7.61672 5.125,-11.9375 -0.56839,-5.43805 -3.49752,-8.34675 -10.21875,-10.1875 -3.01976,-0.82703 -6.697823,-1.27285 -10.71875,-1.34375 z" transform="translate(-3.4164743e-6,0)" style="color:#000000;fill:#ffffff" role="button" aria-label="Change color"></path>
    <path d="M 211.3125,79.8125 209.625,88.25 c -2.54195,12.82041 -2.64848,18.34786 -0.4375,23.5 l 0.84375,1.9375 0.5,-1.71875 c 0.57587,-1.95855 1.19106,-3.1834 4.71875,-9.09375 1.37551,-2.30456 3.25892,-5.754711 4.1875,-7.6875 1.52951,-3.183578 1.6875,-3.822013 1.6875,-6.53125 0,-4.010483 -0.88822,-5.404659 -4.71875,-7.28125 -1.5211,-0.745195 -3.29648,-1.40804 -3.9375,-1.46875 L 211.3125,79.8125 z m -89.65625,44.09375 -1.125,2.34375 c -0.61358,1.29742 -1.81955,3.56841 -2.6875,5.03125 -1.62005,2.7304 -2.45831,4.81459 -2.90625,7.125 -0.14029,0.72369 -0.12978,1.23915 0.0312,1.15625 4.51537,-2.32387 6.91218,-2.68425 17.40625,-2.65625 4.55414,0.0122 8.74371,-0.0994 9.34375,-0.25 0.98845,-0.24809 0.81645,-0.3625 -1.875,-1.34375 -3.76867,-1.37398 -7.12415,-3.36172 -13.28125,-7.84375 l -4.90625,-3.5625 z m -88.4375,79.75 c -0.175723,0 -0.408097,0.68512 -0.53125,1.5 -0.429233,2.84015 -2.204499,7.86982 -3.5625,10.125 -0.752234,1.24921 -3.13107,4.54377 -5.3125,7.34375 -2.181429,2.79998 -3.96875,5.21369 -3.96875,5.34375 0,0.13005 3.253022,-1.44315 7.21875,-3.5 6.163946,-3.19698 10.657583,-5.28961 15.15625,-7 l 1,-0.375 -1.40625,-1.5625 c -0.775374,-0.85824 -1.888165,-2.50762 -2.46875,-3.65625 -2.175789,-4.30457 -5.091091,-8.21875 -6.125,-8.21875 z" transform="translate(-3.4164743e-6,0)" style="color:#000000;fill:#ffffff" role="button" aria-label="Change color"></path>
    <path d="m 111.0625,75.28125 c -2.27806,0.03043 -4.58921,0.277285 -6.4375,0.75 -7.81693,1.999232 -12.207456,6.359594 -12.78125,12.6875 l -0.1875,2.25 2.96875,1.46875 c 2.197747,1.086186 3.716742,1.532041 5.875,1.75 6.64663,0.671233 12.93089,-1.168959 18.25,-5.34375 3.40149,-2.669709 6.68227,-7.728664 6.0625,-9.34375 -0.32765,-0.853847 -4.69286,-2.978044 -7.4375,-3.625 -1.79872,-0.42399 -4.03444,-0.624185 -6.3125,-0.59375 z m -1.34375,2.65625 c 2.76882,0.0073 7.53296,1.044885 7.96875,1.75 0.33411,0.540603 -2.50848,4.49608 -4.375,6.09375 -0.87937,0.752708 -2.50611,1.78318 -3.625,2.3125 -2.26692,1.072424 -5.3125,1.886676 -5.3125,1.40625 0,-0.171549 -0.88041,-0.895363 -1.96875,-1.59375 -2.2538,-1.44626 -2.62251,-2.322104 -1.96875,-4.75 0.95061,-3.530289 3.96796,-5.23276 9.28125,-5.21875 z M 212.875,121.78125 c -2.10068,0.0303 -4.20615,0.26328 -5.71875,0.65625 -4.8784,1.26742 -10.27894,5.18294 -9.71875,7.0625 1.55249,5.20892 6.67989,9.58064 13.0625,11.125 2.75766,0.66726 7.96973,0.74922 10.40625,0.1875 4.33444,-0.99927 7.99096,-3.74716 9.53125,-7.1875 0.70514,-1.575 0.68504,-1.66095 -0.0937,-3.1875 -1.87088,-3.66723 -6.65185,-6.99313 -11.78125,-8.1875 -1.50078,-0.34945 -3.58682,-0.49909 -5.6875,-0.46875 z m -0.5625,2.8125 c 3.23248,-0.1008 6.71159,0.88325 8.625,3.0625 1.9952,2.27238 1.99501,3.181 -0.0625,5.125 -0.97969,0.92564 -2.4935,1.85768 -3.34375,2.09375 -2.07889,0.57721 -5.53225,0.52146 -7.34375,-0.125 -3.56871,-1.27355 -5.94697,-4.383 -5.03125,-6.59375 0.93952,-2.26822 3.92377,-3.4617 7.15625,-3.5625 z M 42.53125,230.15625 c -1.84917,0.0211 -3.728223,0.26865 -5.5,0.75 C 26.991356,233.63386 19,241.05753 19,247.65625 c 0,3.74269 1.869835,6.07969 5.96875,7.4375 1.848473,0.61233 7.610001,0.0648 10.875,-1.03125 9.471689,-3.17954 16.161714,-10.24519 16.6875,-17.59375 0.16339,-2.28358 0.09113,-2.91259 -0.46875,-3.53125 -1.631809,-1.80313 -5.463077,-2.8276 -9.53125,-2.78125 z m -1.375,3.53125 c 1.176271,-3.5e-4 2.289364,0.0891 3.09375,0.25 1.139534,0.2279 1.163981,0.30822 0.96875,1.875 -0.522442,4.19276 -3.226066,7.66609 -7.53125,9.65625 -1.839039,0.85014 -2.959724,1.05776 -6.28125,1.1875 l -4.0625,0.15625 0,-1.15625 c 0,-1.72557 1.14651,-5.2033 2.21875,-6.78125 1.366954,-2.01165 3.932703,-3.91487 6.21875,-4.59375 1.268416,-0.37668 3.414548,-0.59316 5.375,-0.59375 z" transform="translate(-3.4164743e-6,0)" style="color:#000000;fill:#ffffff" role="button" aria-label="Change color"></path>
    <path d="m 116.96875,55.125 c -2.08709,-0.05839 -4.06309,0.195795 -5.84375,0.75 -2.35895,0.734187 -6.9299,3.780532 -6.5625,4.375 0.0991,0.160352 1.8578,0.397366 3.875,0.53125 4.8473,0.321721 9.55004,1.352 18.875,4.1875 4.23735,1.28848 8.3332,2.509387 9.09375,2.71875 1.64583,0.453058 3.15625,0.5665 3.15625,0.21875 0,-0.749273 -1.95747,-3.177953 -4.21875,-5.25 -4.96887,-4.553071 -12.11372,-7.356092 -18.375,-7.53125 z m 27.3125,6.25 0.25,4.3125 c 0.30236,4.978354 -0.068,8.050217 -2.09375,17.46875 -0.77115,3.585453 -1.47757,8.1263 -1.59375,10.0625 l -0.21875,3.5 0.875,-0.625 c 1.01688,-0.71225 3.57538,-3.984502 5.03125,-6.46875 1.8108,-3.089908 3.64084,-8.226541 4.28125,-11.9375 1.21721,-7.05337 -0.79358,-12.958207 -5.3125,-15.59375 L 144.28125,61.375 z m -36.3125,69.59375 c -0.12652,0 -0.63003,1.03601 -1.125,2.3125 -1.98219,5.11191 -7.722311,12.42618 -15.75,20 -3.383925,3.19261 -9.21875,9.67612 -9.21875,10.25 0,0.1397 1.110623,-0.43921 2.46875,-1.28125 1.358126,-0.84204 4.689997,-2.7475 7.40625,-4.21875 6.783033,-3.67403 9.72426,-5.66149 12.3125,-8.375 4.44351,-4.65855 5.81616,-9.52204 4.59375,-16.15625 -0.25486,-1.38319 -0.56098,-2.53125 -0.6875,-2.53125 z m -0.4375,79.90625 c -0.13875,-0.002 -0.75573,0.48015 -1.46875,1.15625 -4.58103,4.34386 -10.403505,7.35419 -24.09375,12.4375 -5.603104,2.08048 -10.25634,3.8515 -10.34375,3.9375 -0.339073,0.33371 4.267209,2.12983 6.3125,2.46875 8.495716,1.4078 19.036113,-4.28507 26.3125,-14.1875 1.54192,-2.09839 3.3125,-5.16991 3.3125,-5.78125 0,-0.0202 -0.0114,-0.031 -0.0312,-0.0312 z" transform="translate(-3.4164743e-6,0)" style="color:#000000;fill:#ffffff" role="button" aria-label="Change color"></path>
    <path d="m 166.875,62.4375 c -0.76403,-0.03104 -1.416,0.830803 -2.25,2.6875 -2.32198,5.169318 -2.73615,8.104852 -1.34375,9.875 1.02815,1.307088 1.47742,1.323545 1.96875,0.03125 0.21369,-0.56206 1.20225,-2.063343 2.1875,-3.34375 0.98525,-1.280406 2.02697,-2.960593 2.34375,-3.71875 0.68083,-1.62946 0.76869,-3.375 0.15625,-3.375 -0.23877,0 -0.93334,-0.516187 -1.53125,-1.15625 -0.58788,-0.629334 -1.07283,-0.981374 -1.53125,-1 z m -96.15625,8.21875 c -0.282556,0.126706 -0.3125,0.904098 -0.3125,3.25 l 0,3.4375 5.25,-0.1875 c 5.644855,-0.203835 7.597581,-0.743057 8.71875,-2.34375 1.125645,-1.607084 0.85667,-1.774982 -3,-2.0625 -3.219793,-0.240038 -8.270391,-1.240597 -10.28125,-2.03125 -0.156617,-0.06158 -0.280815,-0.104735 -0.375,-0.0625 z m 149.6875,30.6875 c -0.47265,0 -2.21875,4.92219 -2.21875,6.25 0,1.31871 0.14375,1.65186 0.875,1.875 0.48893,0.14919 2.214,1.17732 3.84375,2.28125 1.62975,1.10392 3.5832,2.2269 4.34375,2.5 0.76055,0.27309 2.13489,0.49 3.03125,0.5 1.50005,0.016 1.65681,-0.0653 1.875,-1.15625 0.64074,-3.20371 -1.03533,-5.3697 -7.15625,-9.34375 -2.45646,-1.59488 -4.51685,-2.90625 -4.59375,-2.90625 z M 117.25,104.875 c -2.71844,0.0425 -5.8172,1.47175 -9.8125,4.40625 l -2.6875,2 1.40625,1.53125 c 0.77366,0.85636 1.40625,1.71888 1.40625,1.90625 0,0.18737 0.36217,0.8025 0.8125,1.375 l 0.8125,1.0625 1.84375,-1.0625 c 3.53506,-2.03221 6.42086,-4.14783 8.96875,-6.53125 1.40987,-1.31888 2.5625,-2.5145 2.5625,-2.6875 0,-0.173 -0.82255,-0.70827 -1.8125,-1.1875 -1.11456,-0.53955 -2.26435,-0.8318 -3.5,-0.8125 z m 124.46875,4.28125 c -0.77338,0.0394 -1.03125,0.3606 -1.03125,1.0625 0,0.52941 -0.42578,2.79008 -0.96875,5.03125 -1.56792,6.47178 -1.17257,9.24575 1.5,10.40625 0.69216,0.30056 1.43895,0.4981 1.65625,0.4375 0.51197,-0.14267 3.58042,-8.49238 4.15625,-11.3125 0.24403,-1.19515 0.50275,-2.4553 0.59375,-2.78125 0.11265,-0.40349 -0.55036,-0.9248 -2.09375,-1.65625 -1.24679,-0.59089 -2.54905,-1.0926 -2.875,-1.125 -0.38716,-0.0385 -0.67971,-0.0756 -0.9375,-0.0625 z m -124.25,44.21875 c -0.54338,0.16456 -1.61973,1.39324 -4,4.46875 -0.92498,1.19515 -2.56991,3.09583 -3.65625,4.21875 l -1.96875,2.03125 1.5,1.84375 c 0.82751,1.00987 1.87613,2.06936 2.3125,2.375 0.51153,0.35829 0.92923,0.42778 1.21875,0.1875 0.75062,-0.62296 5.3115,-10.00575 5.375,-11.0625 0.11104,-1.84813 -0.0557,-3.35262 -0.40625,-3.90625 -0.0961,-0.1517 -0.19387,-0.2111 -0.375,-0.15625 z M 34.9375,174.0625 c -0.590652,0.0179 -0.934389,0.36619 -1.09375,1.0625 -0.136764,0.59758 -0.699474,2.59984 -1.21875,4.4375 -1.291356,4.56995 -1.251111,7.46423 0.09375,9.0625 0.562567,0.66858 1.14712,1.21875 1.3125,1.21875 0.16538,0 1.024566,-0.51756 1.90625,-1.15625 1.957999,-1.41837 3.88138,-5.13113 4.4375,-8.53125 0.593739,-3.63011 0.528752,-4.14195 -0.5,-4.15625 -0.488925,-0.007 -1.59955,-0.46464 -2.46875,-1 -1.069914,-0.65898 -1.878098,-0.95544 -2.46875,-0.9375 z" transform="translate(-3.4164743e-6,0)" style="color:#000000;fill:#ffffff" role="button" aria-label="Change color"></path>
    <path d="m 5.7162824,269.8082 c 0.3007852,-5.94162 1.0455242,-9.15912 4.6548816,-20.11053 1.718824,-5.2152 3.314247,-10.37114 3.545384,-11.45764 0.663247,-3.1177 0.690743,-3.16219 2.867987,-4.63991 3.337216,-2.26501 6.017181,-3.63979 12.93184,-6.63382 8.136789,-3.52322 11.250561,-5.07928 14.278249,-7.13534 2.72847,-1.85287 2.709632,-1.66881 0.67221,-6.56862 -2.46355,-5.9246 -5.502711,-9.45041 -10.011818,-11.61495 -3.622619,-1.739 -3.82514,-1.65844 -4.668284,1.85683 -1.06619,4.4452 -3.49,10.04311 -5.935458,13.70823 -2.057014,3.08295 -4.416629,5.75919 -4.754651,5.39267 -0.08559,-0.0928 6.1e-5,-1.23549 0.190341,-2.53929 0.19028,-1.3038 0.701599,-7.2598 1.136265,-13.23556 1.742403,-23.95444 2.850946,-31.38871 5.833995,-39.12474 1.384454,-3.59035 3.897878,-7.64738 4.560968,-7.36208 8.003119,3.44349 12.58194,4.59373 18.319217,4.60196 9.600528,0.0138 17.952117,-3.57974 25.518241,-10.97995 13.545052,-13.24802 17.485064,-33.6153 9.333707,-48.24914 -1.909429,-3.42792 -6.908641,-8.686391 -10.321534,-10.856798 -2.00173,-1.272988 -2.27083,-1.595911 -2.263829,-2.716627 0.01877,-3.004306 1.359157,-10.129211 2.08351,-11.074958 0.349256,-0.456005 1.997447,-0.78694 6.167157,-1.238285 3.129786,-0.33878 6.374473,-0.800132 7.210415,-1.025229 l 1.519897,-0.409265 0,-3.113188 c 0,-1.712254 -0.11044,-3.400992 -0.245423,-3.752751 -0.43935,-1.144928 -2.349019,-1.759801 -6.124385,-1.971923 -4.092146,-0.229921 -4.049148,-0.181806 -2.516605,-2.816124 3.467096,-5.95966 9.890904,-10.114955 24.09743,-15.587625 7.75521,-2.987483 12.08867,-4.865027 15.07766,-6.532654 1.33911,-0.74712 2.81297,-1.3584 3.27524,-1.3584 1.40984,0 3.92426,1.519501 6.53785,3.950912 3.74912,3.487801 4.83965,3.922997 8.692,3.468706 6.30885,-0.743974 15.80425,0.158568 22.24376,2.114279 4.41956,1.342241 12.03327,5.277403 17.92563,9.264896 4.62567,3.130299 5.75669,3.733524 6.60227,3.521294 0.56122,-0.140855 3.00784,-0.248944 5.43695,-0.240197 5.72059,0.0206 9.88655,0.888159 21.08082,4.390064 4.88926,1.529507 10.41838,3.062107 12.28693,3.405779 l 3.39738,0.624857 1.30129,2.147116 c 0.71571,1.180914 2.92752,5.934157 4.91514,10.562761 4.3037,10.022102 5.75235,12.4974 7.314,12.4974 1.83492,0 7.03635,1.49356 9.80779,2.81625 6.14171,2.93117 9.20545,8.56865 7.63417,14.04737 -0.4283,1.49343 0.0897,2.18971 6.7571,9.08303 2.34824,2.4278 4.26786,4.56129 4.26582,4.7411 -0.01,0.87204 -2.47709,4.47636 -4.06779,5.94261 -2.49965,2.3041 -5.55092,3.73814 -14.25718,6.70063 -8.82513,3.00294 -11.26705,4.20861 -13.97024,6.89767 l -1.98594,1.97555 -1.01381,-1.01381 c -1.17752,-1.17752 -1.5527,-1.21949 -3.8033,-0.42543 -2.22257,0.78416 -5.60585,3.19105 -12.80304,9.10813 -7.43346,6.11132 -22.93999,16.17591 -38.1758,24.7782 -11.08269,6.25739 -24.88997,12.90872 -34.58215,16.65913 l -2.7773,1.07469 -4.61764,-1.16696 -4.61763,-1.16696 -3.48195,3.60804 c -1.91507,1.98442 -5.33377,6.09711 -7.59711,9.13931 -2.26334,3.04221 -5.36841,7.2203 -6.90014,9.28465 -7.16804,9.66054 -14.106657,14.86692 -22.640612,16.98835 -2.724072,0.67716 -4.278463,0.79206 -9.490187,0.7015 l -6.232553,-0.10829 -2.757638,1.3706 c -2.348446,1.16722 -4.076725,2.66608 -11.647196,10.10108 -9.526108,9.35564 -10.840427,10.49346 -14.530298,12.5791 -5.158659,2.91585 -9.007809,3.80309 -20.793943,4.79305 -9.643486,0.80999 -13.830556,1.97019 -17.55315,4.86385 -2.6992074,2.09816 -2.5761967,2.23169 -2.3349106,-2.5346 l 0,0 z m 20.4442716,-9.04161 c 11.960461,-0.76341 21.693141,-4.9963 26.524116,-11.53575 3.117333,-4.21978 5.083184,-10.77917 5.083184,-16.96091 l 0,-2.5083 -1.567927,-0.7999 c -3.830189,-1.95402 -10.233433,-2.49962 -16.154235,-1.37647 -11.286791,2.14107 -21.404877,9.60226 -24.353018,17.95818 -0.908967,2.57628 -0.828332,6.4743 0.190112,9.19033 1.088999,2.90419 4.426409,6.69485 5.673289,6.44377 0.468112,-0.0943 2.540127,-0.27919 4.604479,-0.41095 z M 90.362883,233.02826 C 103.73416,228.26389 114.661,215.39559 114.661,204.41288 l 0,-2.7717 -1.67914,1.35207 c -2.46071,1.9814 -13.5977,8.50617 -14.075227,8.24618 -0.135757,-0.0739 -0.441878,-1.22955 -0.680264,-2.56809 -0.23839,-1.33854 -0.755403,-3.99092 -1.148918,-5.89419 -0.393519,-1.90326 -0.610285,-3.56567 -0.481711,-3.69425 0.128579,-0.12858 0.912278,0.31039 1.741555,0.97549 3.105555,2.49071 7.872735,3.18477 12.641165,1.84044 2.38848,-0.67337 2.45848,-0.73227 3.22994,-2.71829 1.55785,-4.01043 1.80957,-5.24586 1.8224,-8.9441 0.0113,-3.26935 -0.1247,-4.04725 -1.05493,-6.03235 -0.59153,-1.26231 -2.01071,-3.22175 -3.18125,-4.39229 -8.26513,-8.26514 -29.554118,-9.76847 -48.522528,-3.42646 -11.798346,3.94472 -18.900775,9.59203 -20.7239,16.47805 -1.412989,5.33691 0.65635,9.83981 5.539927,12.05491 3.47843,1.57776 9.959808,1.14625 14.161852,-0.94285 l 1.518932,-0.75516 -0.284193,1.31113 c -0.156306,0.72112 -0.805859,3.00014 -1.443454,5.06449 -1.523242,4.93185 -2.799723,10.29738 -2.517035,10.58008 0.123873,0.12386 3.112947,0.004 6.642389,-0.26525 14.100431,-1.0777 16.370863,-1.18971 18.269904,-0.90132 1.722744,0.26162 1.874373,0.35565 1.185274,0.73511 -1.992528,1.09719 -13.230472,4.55853 -16.185,4.98506 l -3.291091,0.47511 1.393673,2.08848 c 2.166566,3.24671 5.814597,5.85915 9.483047,6.79101 0.81825,0.20786 3.44343,0.3087 5.833732,0.2241 3.51301,-0.12434 4.951817,-0.36968 7.506734,-1.28003 l 0,0 z m 46.028127,-38.95429 c 6.19306,-2.92336 21.12751,-9.7676 33.18767,-15.20943 22.48262,-10.14469 43.78487,-20.04434 44.39641,-20.63204 0.47877,-0.46011 -2.79053,-4.59948 -5.76828,-7.30342 -13.64304,-12.38849 -36.0716,-15.55905 -56.80233,-8.02973 -15.59135,5.66272 -26.67603,16.69842 -30.08604,29.95308 -1.65873,6.44747 -1.12723,15.52654 1.32885,22.69901 1.37928,4.02794 1.49096,4.2542 1.99525,4.04262 0.2686,-0.11269 5.55542,-2.59673 11.74847,-5.52009 z m -94.928946,-8.09433 c 3.967798,-8.03943 5.226539,-11.3288 4.580588,-11.9701 -0.259828,-0.25795 -5.025747,-1.7289 -13.593309,-4.19541 -0.781291,-0.22493 -1.792371,3.08347 -3.524527,11.53276 -0.668218,3.2595 -1.474643,6.80314 -1.792056,7.87476 -0.81304,2.7449 -0.779328,2.84767 1.179505,3.59575 2.59511,0.99108 4.098337,1.28557 6.737842,1.31995 l 2.370548,0.0309 4.041409,-8.18858 0,2e-5 z m 74.734916,-16.82185 c 3.88281,-6.61458 7.8658,-15.23111 7.39369,-15.99501 -0.12722,-0.20584 -1.58014,-1.21495 -3.22871,-2.24246 l -2.99741,-1.8682 -1.39174,1.33146 c -0.76547,0.7323 -3.27014,3.73164 -5.56594,6.66519 -2.29581,2.93356 -4.98895,6.18484 -5.98477,7.22508 -1.50016,1.5671 -1.70904,1.9582 -1.21834,2.28129 0.32573,0.21447 2.08914,1.30475 3.9187,2.42286 1.82956,1.1181 3.96305,2.67765 4.7411,3.46566 1.63663,1.6576 1.26707,1.93782 4.33342,-3.28587 l 0,0 z m -31.386701,-3.0019 c 4.1512,-1.08095 8.876001,-3.4081 12.708339,-6.25935 3.472152,-2.58328 10.752372,-9.98438 13.784102,-14.01298 1.76458,-2.34479 2.22851,-2.71006 4.346,-3.42165 2.84575,-0.95633 7.12054,-1.4771 14.81593,-1.80493 11.0136,-0.46918 19.75456,-1.41768 19.75456,-2.1436 0,-0.14212 -3.95585,-2.63927 -8.79078,-5.54921 -4.83493,-2.90995 -11.32332,-6.87203 -14.41864,-8.80462 -5.80225,-3.62269 -6.18562,-3.73728 -7.84601,-2.34521 -1.04642,0.87732 -1.54095,1.80606 -3.16658,5.94691 -1.58041,4.02566 -3.70226,6.59751 -3.70896,4.49555 -0.007,-2.27337 -1.78713,-5.47484 -3.57608,-6.43226 -0.63608,-0.34042 -0.93116,0.0148 -2.35022,2.82905 -3.95535,7.84424 -8.655104,13.19593 -22.137005,25.20778 -4.46772,3.98057 -13.023978,12.34679 -13.023978,12.73471 0,0.9912 9.262899,0.69159 13.609322,-0.44019 l 0,0 z M 223.07979,145.59976 c 1.68071,-0.42985 3.97598,-1.27362 5.10061,-1.87504 3.0383,-1.62479 6.23461,-4.98346 7.73549,-8.12842 l 1.28168,-2.68563 -1.23066,-1.91782 c -2.29905,-3.58275 -6.70736,-7.1071 -11.37314,-9.09257 -4.01332,-1.70782 -7.51049,-2.38592 -12.27098,-2.37934 -6.53394,0.009 -10.79119,1.3059 -15.14181,4.61257 -1.93391,1.46986 -5.0821,5.60536 -5.0821,6.67592 0,2.64786 5.63242,9.49645 9.67974,11.76982 6.51668,3.66041 14.41827,4.78086 21.30117,3.02051 l 0,0 z m -48.23237,-14.20565 c 9.22709,-3.57095 14.2938,-5.91003 17.95326,-8.28824 l 2.47971,-1.61151 -2.96343,-3.56053 c -2.78395,-3.34488 -7.17271,-9.48128 -6.78103,-9.48128 0.0977,0 1.29878,0.28722 2.66902,0.63825 3.30265,0.8461 7.83309,0.59377 10.0784,-0.56133 2.26789,-1.16671 3.96978,-3.37377 4.88979,-6.34123 2.18313,-7.041542 -0.26742,-11.155311 -7.83242,-13.148396 -2.41734,-0.636875 -4.26478,-0.800889 -8.97066,-0.796409 -19.52383,0.01861 -37.843,7.480034 -47.19198,19.221385 -2.46733,3.0987 -4.90296,7.45524 -6.18146,11.05658 l -1.02617,2.89056 1.37025,2.14206 c 3.49541,5.4642 10.46374,6.97185 17.08919,3.69738 2.02247,-0.99957 3.48307,-2.0833 4.80463,-3.56492 l 1.89879,-2.12876 0.0398,5.20138 c 0.034,4.44534 0.67019,10.49732 1.19802,11.39674 0.0868,0.14794 1.97733,-0.59611 4.20112,-1.65346 2.22379,-1.05735 7.74762,-3.35607 12.27518,-5.10827 l 0,0 z m 73.25355,-7.43423 c 2.5815,-6.15062 6.02724,-15.05102 6.02724,-15.56845 0,-0.12385 -0.94558,-0.33631 -2.10129,-0.47214 -1.15571,-0.13583 -4.66708,-1.13542 -7.80305,-2.2213 -3.13597,-1.08588 -5.91708,-1.97707 -6.18025,-1.98043 -0.32866,-0.004 -0.51422,1.04427 -0.59264,3.34854 l -0.11415,3.35466 -3.75337,-3.194 c -2.06435,-1.7567 -4.57317,-3.99089 -5.57516,-4.96487 l -1.82179,-1.77088 -0.21662,-5.205101 c -0.25462,-6.118154 -0.74641,-8.6704 -2.30997,-11.98808 -1.41273,-2.997641 -4.29753,-5.704241 -7.26195,-6.813372 -1.98706,-0.743457 -7.31016,-1.569668 -7.31016,-1.134628 0,0.106735 -0.52615,2.220332 -1.16922,4.696882 -2.11822,8.15761 -2.83239,14.382067 -3.06651,26.726699 -0.2324,12.25426 -0.33575,11.73458 2.12151,10.66747 0.62548,-0.27163 2.50097,-1.34947 4.16776,-2.3952 1.66679,-1.04574 3.67802,-2.08012 4.46941,-2.29863 1.33037,-0.36734 1.62599,-0.2754 3.9197,1.21901 1.36445,0.88898 4.66728,2.68991 7.33961,4.00208 3.77412,1.85316 4.93649,2.27008 5.2068,1.86759 0.19139,-0.285 1.05583,-1.70943 1.92098,-3.1654 0.86514,-1.45598 1.74289,-2.75224 1.95054,-2.88057 0.86576,-0.53507 0.87926,2.23272 0.036,7.37547 -0.48927,2.98389 -0.78312,5.59752 -0.65299,5.80808 0.13012,0.21056 0.78066,0.50232 1.44563,0.64838 0.66497,0.14605 2.3081,0.76388 3.6514,1.37296 1.34329,0.60908 2.88624,1.19022 3.42875,1.29141 0.54252,0.1012 1.09436,0.2082 1.22631,0.2378 0.13196,0.0296 1.48983,-2.9242 3.01749,-6.56398 l 0,0 z m -128.07383,-9.05514 c 3.46979,-2.57086 6.73729,-4.95503 7.26112,-5.29818 l 0.95241,-0.62391 -0.88699,-2.18539 c -1.07619,-2.65157 -3.44067,-5.21025 -5.41776,-5.86275 -1.96139,-0.64732 -6.13447,-0.29041 -8.89319,0.76059 -2.77678,1.05789 -8.65387,4.90798 -11.59457,7.59561 l -2.239551,2.04682 1.327971,1.42193 c 0.73038,0.78205 2.01019,2.31087 2.84403,3.39737 1.94558,2.53511 3.19996,3.64684 5.13101,4.54751 1.54241,0.71941 1.56957,0.7178 3.38086,-0.20004 1.00427,-0.50891 4.66487,-3.02871 8.13466,-5.59956 l 0,0 z m 16.30416,-9.85622 c 3.95419,-1.74991 5.17691,-2.58726 8.41091,-5.759965 1.92585,-1.889346 3.50154,-3.711705 3.50154,-4.049686 0,-0.33798 0.15309,-0.614513 0.34019,-0.614513 0.18711,0 0.76493,-0.844507 1.28405,-1.876683 0.51912,-1.032176 1.13875,-2.14337 1.37696,-2.469321 0.60288,-0.824942 2.40794,-5.497931 2.67379,-6.921991 0.1209,-0.647558 0.40046,-1.888544 0.62126,-2.757744 0.2208,-0.869201 0.40569,-3.543161 0.41088,-5.942134 0.015,-6.94719 -1.41617,-10.976685 -5.26606,-14.826572 -1.99574,-1.995736 -6.38254,-4.434749 -8.84903,-4.919958 -1.20535,-0.237118 -1.28416,-0.184089 -1.286,0.865295 -0.001,0.614841 0.2914,1.936446 0.64994,2.936898 0.78493,2.190196 0.4891,4.294479 -0.48955,3.482273 -0.32955,-0.273504 -0.83826,-1.069484 -1.13047,-1.768846 -0.68965,-1.650547 -3.86856,-4.831716 -6.18301,-6.187387 -6.90855,-4.046635 -18.44992,-4.651174 -25.43998,-1.33255 -4.38647,2.08253 -7.945479,5.99652 -8.701735,9.569638 -0.41756,1.972873 -0.398418,2.322347 0.12142,2.216611 0.668419,-0.135956 12.699165,-0.08576 13.716495,0.05724 2.03205,0.285615 4.50335,0.708003 6.12392,1.046686 0.97785,0.204361 2.22239,0.448734 2.76564,0.543052 0.54325,0.09432 1.74334,0.444356 2.66686,0.777863 0.92353,0.333508 1.67914,0.5036 1.67914,0.377981 0,-0.125618 0.29401,0.01561 0.65336,0.313845 0.35935,0.298232 0.75938,0.513978 0.88895,0.479436 0.12958,-0.03454 0.83514,0.187696 1.5679,0.493864 0.73276,0.306167 1.41776,0.556669 1.52223,0.556669 0.29629,0 7.63669,3.732425 9.32526,4.741683 l 1.51233,0.903917 -0.19805,2.412159 c -0.22694,2.763991 -0.99628,5.840311 -3.61711,14.463497 -2.74024,9.016123 -3.62009,13.827143 -2.52871,13.827143 0.23879,0 1.08329,-0.28727 1.87668,-0.63839 l 0,0 z m -24.23969,-7.265504 c 9.80929,-2.639217 16.96371,-9.51249 18.1347,-17.422069 0.25536,-1.724778 0.20251,-1.868868 -1.0303,-2.809059 -4.11694,-3.139758 -9.47645,-4.713405 -16.11538,-4.731759 -8.87776,-0.02454 -15.882921,2.248137 -21.109125,6.848426 -4.205885,3.702168 -5.76203,8.290003 -4.781149,14.095798 0.246343,1.458092 0.431028,1.641762 2.653847,2.639305 5.93215,2.662188 15.316837,3.244047 22.247407,1.379358 z m 54.778,-20.449595 c 0.57436,-1.029045 2.39865,-3.442746 4.05397,-5.36378 1.65533,-1.921034 3.4863,-4.306069 4.06883,-5.300078 l 1.05914,-1.807288 -1.79295,-1.614019 c -0.98613,-0.887711 -3.46482,-2.615979 -5.50822,-3.840596 -3.60168,-2.158513 -3.72654,-2.200784 -4.08472,-1.38282 -0.20321,0.464067 -1.50407,3.40802 -2.89079,6.542118 -2.52718,5.711645 -4.05918,10.869597 -3.40705,11.47087 0.82618,0.761734 5.87353,3.177456 6.62808,3.172277 0.57588,-0.004 1.14863,-0.577608 1.87371,-1.876684 l 0,0 z" style="color:#000000;fill:#ffffff" role="button" aria-label="Change color"></path>
    <path d="m 274.8705,128.04937 c -2.60648,-0.64077 -3.34843,-1.07619 -5.05765,-2.96808 -1.75711,-1.94491 -3.10674,-4.5571 -4.677,-9.05221 -3.18215,-9.10944 -5.49241,-11.85354 -14.04383,-16.68104 -5.9296,-3.347415 -9.43174,-6.007683 -11.31266,-8.593239 -1.87789,-2.581404 -2.46017,-3.817795 -4.27027,-9.067273 -2.7872,-8.083172 -3.85106,-9.600765 -8.29974,-11.839546 -4.75616,-2.393518 -10.77302,-4.246141 -19.01451,-5.85468 -16.73172,-3.265615 -21.1472,-4.341077 -24.97684,-6.083512 -1.30857,-0.595383 -5.49056,-3.180884 -9.29332,-5.745559 -12.55392,-8.466691 -14.29235,-8.879201 -29.24357,-6.939194 -4.27597,0.554831 -9.74723,0.484015 -12.15659,-0.157349 -2.63652,-0.701832 -5.62749,-2.607924 -7.35428,-4.686753 l -1.3373,-1.609939 -4.88229,1.321891 c -2.68526,0.72704 -8.79369,2.641423 -13.5743,4.254187 -8.357437,2.819422 -17.140682,5.62824 -17.607553,5.630761 -0.122946,7.9e-4 -0.223538,-1.386944 -0.223538,-3.083573 0,-2.67041 -0.168921,-3.426683 -1.257526,-5.630051 -0.691639,-1.399897 -2.235614,-3.930535 -3.431056,-5.623639 -1.894904,-2.683754 -2.172981,-3.31684 -2.169253,-4.938641 0.02125,-9.244915 9.602376,-16.676191 21.500566,-16.676191 6.2734,0 11.64105,1.984014 15.33276,5.667363 l 1.91834,1.913997 2.10229,-1.028553 c 2.48119,-1.213937 4.62346,-2.796237 9.71345,-7.174466 7.97253,-6.8576845 11.36253,-8.2745228 19.75456,-8.256335 6.08585,0.01319 6.13401,0.02945 11.42665,3.8582968 6.44391,4.6617082 8.74908,7.9786302 9.04875,13.0202952 0.0872,1.466776 0.2718,2.664724 0.41025,2.662107 0.13845,-0.0026 0.9629,-0.409874 1.8321,-0.905014 2.4658,-1.404645 5.67266,-2.598011 8.69201,-3.234549 3.64538,-0.76852 10.52568,-0.754558 14.33871,0.0291 6.43528,1.322579 13.17884,5.087032 16.70667,9.326141 3.61751,4.346881 4.90792,7.981127 4.90792,13.822421 l 0,3.822323 5.53128,-0.207735 c 19.93389,-0.748642 34.76591,8.756171 38.95031,24.96057 0.5772,2.235241 0.83659,4.584019 0.88588,8.021554 l 0.0697,4.860823 2.42181,1.293956 c 6.71122,3.585749 13.27665,10.568391 16.3385,17.376755 3.74202,8.32079 3.04413,17.03644 -1.84715,23.06828 -1.5179,1.87184 -2.24801,2.01235 -5.85228,1.1263 l 0,0 z" style="color:#000000;fill:#ffffff" role="button" aria-label="Change color"></path>
    <path d="M 11.312638,287.49638 C 10.42584,287.0788 9.0331254,285.92296 8.2177158,284.92786 l -1.4825629,-1.80927 1.3170112,-1.64506 c 2.4727899,-3.08872 7.5673149,-6.15676 12.6343539,-7.6087 1.163668,-0.33344 5.150376,-1.24006 8.859351,-2.0147 13.043694,-2.72426 16.625709,-4.52316 29.236675,-14.68272 13.218516,-10.64901 15.426105,-11.75503 31.777885,-15.92097 8.972206,-2.28585 13.289251,-3.61024 16.379061,-5.0248 2.73826,-1.25362 4.52454,-3.32693 10.44413,-12.1224 10.3477,-15.37486 12.91449,-17.27566 33.42823,-24.75482 15.43166,-5.62629 18.94916,-7.04851 25.08829,-10.14391 5.63936,-2.84341 8.28557,-4.51802 25.41106,-16.08098 9.66199,-6.52369 14.43528,-9.0503 31.08699,-16.45507 18.08389,-8.04164 26.0604,-12.26096 33.32595,-17.62836 2.9987,-2.21528 3.46741,-2.42806 5.89672,-2.67695 3.34307,-0.34251 6.9529,-1.45619 11.84535,-3.65445 2.12004,-0.95257 4.18598,-1.73195 4.59098,-1.73195 0.97639,0 1.83001,2.95434 1.44563,5.00326 -1.181,6.29525 -7.95114,11.59821 -26.20927,20.52937 -16.23683,7.94242 -44.4178,24.18191 -115.44489,66.52597 -65.708337,39.17318 -85.583023,49.75428 -110.428005,58.79081 -16.431432,5.97639 -22.613182,7.31991 -26.108017,5.67422 z" style="color:#000000;fill:#ffffff" role="button" aria-label="Change color"></path>
  </g>
</svg>