<svg width="400px" height="400px" xmlns="http://www.w3.org/2000/svg" viewBox="0 0 1038.5037 428.47534">
  <title>Turtle</title>
  <g class="shapes">
    <path d="m 260.59375,207.0625 c -6.0937,0.0781 -12.88714,0.94038 -20.40625,2.75 -57.49126,15.06546 -45.15625,60.34375 -45.15625,60.34375 l 117.625,-27.03125 c 0,0 -9.40657,-36.60957 -52.0625,-36.0625 z M 958.25,315.5 c -59.4293,0.60953 -58.53125,47.53125 -58.53125,47.53125 l 120.68745,2.4375 c 0,0 -0.2887,-49.35922 -62.1562,-49.96875 z m -586.5,10.1875 c -2.63581,-0.0148 -5.38121,0.10125 -8.28125,0.3125 -59.4293,5.52401 -58.53125,52.375 -58.53125,52.375 l 120.6875,-7.5625 c 0,0 -0.28028,-44.82435 -53.875,-45.125 z" style="fill:#fff;stroke:#000;stroke-width:4" role="button" aria-label="Change color"></path>
    <path d="m 358.44153,158.33023 c -20.51346,10.98096 -44.55368,10.10151 -66.88354,7.28127 -36.20552,-0.0338 -82.8976,-38.06537 -112.59763,-57.69997 C 132.22795,64.419794 120.13438,64.889144 74.018239,66.949004 31.173706,68.261314 0.59181574,128.05794 2.2654857,162.10518 c 1.98058,15.77169 19.4013303,20.22938 37.3138103,21.07288 5.606443,2.49247 29.534363,-12.33412 5.151703,5.77232 -17.623213,9.11266 -32.020773,13.37105 -31.656693,23.58578 0.06876,1.9291 0.664,4.07064 1.86344,6.49743 5.71308,19.32305 30.793863,23.04007 49.302993,24.42041 38.428881,-6.58038 66.545601,-30.24233 99.936331,-13.76476 36.86322,14.82149 55.02424,19.55347 114.17026,45.9049 68.42393,3.42365 40.66221,6.79337 61.37319,-6.81042 6.07639,-3.34933 23.76629,16.18029 30.65897,14.89506" style="fill:#fff;stroke:#000;stroke-width:4" role="button" aria-label="Change color"></path>
    <path d="m 275.83848,77.093504 c -4.32348,1.33838 -14.31948,3.9316 -21.10352,5.62761 -7.01686,1.75421 -10.87442,4.2207 -18.28972,4.2207 -5.13251,0 -12.24965,4.46931 -16.88282,5.62761 -5.42966,1.35741 -11.611,7.12345 -16.88281,8.441396 -4.91448,1.22863 -9.67474,8.09426 -11.25521,11.25522 -3.40447,6.80893 2.17679,10.42572 7.0345,14.06901 6.80868,5.1065 12.99176,6.76519 19.69662,8.44141 5.88128,1.47032 11.72863,5.86431 16.88282,8.4414 5.04509,2.52255 10.18132,7.70054 12.66211,12.66212 3.45012,6.90024 7.64435,12.28766 9.84831,21.10352 1.64207,6.56828 2.99391,13.02233 5.6276,18.28971 2.66035,5.3207 3.89072,15.56288 5.62761,22.51042 2.22133,8.88534 3.62792,13.10477 5.62761,21.10352 1.67717,6.70869 6.68083,11.95478 9.8483,18.28972 3.34341,6.68681 8.29514,16.59027 11.25521,22.51039 3.46094,6.9219 5.58184,11.1942 9.84831,16.8829 5.17342,6.8978 7.62773,13.2553 12.66212,18.2897 5.58849,5.5885 9.24421,9.2442 14.06901,14.069 6.55831,6.5583 8.33911,9.746 14.06901,15.4759 4.93671,4.93674 14.70945,10.10454 21.10352,12.66214 6.17606,2.4704 11.14125,9.7628 16.88282,14.069 8.28117,6.2109 24.58704,8.6089 35.17253,11.2552 7.13857,1.7847 15.17415,5.5522 21.10352,7.0345 7.07896,1.7698 17.50269,5.8756 23.91732,8.4414 12.86956,5.1479 22.45878,4.407 36.57944,8.4415 12.12714,3.4649 20.20149,3.6434 33.76563,7.0345 17.70079,4.4252 35.23684,5.6276 53.46225,5.6276 12.87686,0 27.16267,-0.2439 39.39324,2.8138 11.4754,2.8688 27.50159,0 39.39323,0 11.36541,0 24.66707,0.1874 35.17253,2.8138 10.36642,2.5916 22.64783,1.4069 33.76564,1.4069 11.25521,0 22.51042,0 33.76563,0 10.45655,0 20.92434,-0.8083 30.95183,-2.8138 13.97002,-2.794 27.33547,-10.3715 36.57943,-14.069 10.57283,-4.2292 16.22858,-8.8734 28.13803,-11.2553 13.94851,-2.7897 23.85801,-10.1852 33.76563,-12.6621 10.89997,-2.725 29.72047,-15.6222 37.98637,-22.5104 12.8914,-10.7428 27.2671,-17.41894 37.9863,-28.13804 10.8174,-10.8174 20.32993,-21.4789 29.54507,-33.7656 4.7042,-6.2723 8.5527,-15.7542 11.2552,-22.5105 3.9063,-9.7659 12.6043,-14.628 16.8828,-25.32419 0.2463,-0.61579 0.9379,-0.93794 1.4069,-1.4069 3.7872,-3.78721 1.4069,-28.97062 1.4069,-35.17254 0,-12.23889 -1.4069,-24.11215 -1.4069,-36.57943 0,-5.52256 -1.7175,-15.31154 -2.8138,-19.69662 -1.7595,-7.03806 -5.6424,-14.09854 -8.4414,-19.69662 -4.2815,-8.56291 -1.8511,-10.29246 -8.4414,-16.88281 -4.8849,-4.88493 -7.5706,-8.70946 -12.6621,-11.25521 -5.18984,-2.59487 -6.61604,-6.82522 -12.66217,-9.84831 -6.4903,-3.245146 -11.984,-5.458076 -18.2898,-7.034506 -8.4403,-2.11008 -12.1669,-7.49036 -19.6966,-11.25521 -8.219,-4.10948 -14.1771,-9.90235 -22.5104,-14.06901 -4.2285,-2.11425 -12.2727,-6.64506 -15.476,-9.84831 -3.7064,-3.70644 -13.46934,-7.43814 -18.28968,-9.84831 -5.17872,-2.58937 -9.40958,-6.11169 -14.06901,-8.44141 -5.81528,-2.90764 -9.47685,-5.18302 -16.88281,-7.03451 -6.00835,-1.50208 -14.76963,-3.86756 -21.10352,-7.0345 -4.44974,-2.22487 -14.38723,-2.81381 -19.69662,-2.81381 -7.4337,0 -15.79785,-3.94946 -22.51042,-5.6276 -6.9943,-1.74857 -16.59233,0 -23.91733,0 -6.5116,0 -13.54036,-4.22071 -21.10352,-4.22071 -7.50347,0 -15.00694,0 -22.51042,0 -9.39175,0 -19.89285,-4.2207 -30.95183,-4.2207 -7.53422,0 -17.64077,-1.2771104 -25.32422,-2.8138004 -7.68094,-1.53619 -18.36464,1.4069 -26.73112,1.4069 -5.08151,0 -15.96983,1.1786504 -22.51042,2.8138004 -8.06833,2.01708 -18.61991,2.54463 -25.32423,4.22071 -8.221,2.05525 -16.96934,1.14282 -25.32422,2.8138 -10.21369,2.04274 -18.82382,2.24388 -26.73113,4.2207 -7.93893,1.98474 -15.10056,4.22071 -23.91732,4.22071 -5.27014,0 -14.8342,7.2258 -19.69662,8.4414 -8.2359,2.05898 -18.691,5.3762 -25.32422,7.03451 -8.47246,2.11812 -18.42486,1.15255 -26.73113,2.8138 -10.02914,2.00583 -18.98299,4.22071 -29.54492,4.22071 -9.91063,0 -19.18368,3.38902 -28.13803,5.6276 -9.86084,2.46521 -17.36459,4.69288 -26.73113,7.03451 -11.41576,2.85394 -24.71741,1.80695 -35.17253,7.03451 -10.04363,5.02181 -29.7086,9.84831 -40.80014,9.84831 -7.04302,0 -11.37328,-0.0472 -18.28971,-2.81381 z" style="fill:#fff;stroke:#000;stroke-width:4" role="button" aria-label="Change color"></path>
    <path d="m 267.69702,95.679024 c -2.09729,-8.38914 -13.58204,10.768226 -19.69662,16.882816 -7.02954,7.02953 -11.32891,2.66641 -7.03451,11.25521 2.51341,5.02682 16.05245,5.6276 21.10352,5.6276 7.66835,0 8.15661,5.06656 15.47592,1.4069 5.34155,-2.67077 9.78727,-5.61234 15.47591,-7.0345 7.25975,-1.81494 11.77313,-7.55243 15.47592,-11.25521 3.92036,-3.92036 15.29347,-6.23984 19.69661,-8.44141 6.25987,-3.12993 12.1123,-2.67635 18.28972,-4.220696 1.87587,-0.46897 3.75174,-0.93794 5.62761,-1.40691 7.502,-1.8755 10.97954,-3.44833 19.69661,-5.6276 7.28378,-1.82095 12.35039,-4.65878 18.28972,-7.03451 6.0809,-2.43236 14.24244,-2.85716 19.69662,-4.2207 6.41397,-1.6035 8.93334,-6.11954 12.66211,-9.84831 6.33827,-6.33827 8.44141,-5.49734 8.44141,-14.06901 0,-1.13174 -20.62119,-2.3415 -22.51042,-2.81381 -7.80084,-1.95021 -16.32746,-3.30436 -23.91732,-1.4069 -6.89804,1.72451 -12.51992,1.4069 -19.69662,1.4069 -6.00594,0 -15.2445,1.70078 -19.69662,2.81381 -6.52589,1.63147 -13.54998,4.09094 -19.69662,5.6276 -6.68938,1.67235 -12.63966,7.01206 -15.47591,9.84831 -4.23223,4.23223 -10.23173,5.91517 -15.47592,9.84831 -5.68063,4.26048 -14.33843,8.29174 -18.28971,11.25521 -2.2821,1.71157 -5.62761,0.93793 -8.44141,1.4069 z" style="fill:#fff;stroke:#000;stroke-width:4" role="button" aria-label="Change color"></path>
    <path d="m 279.53499,146.91022 c 5.37272,4.25102 9.84831,7.1156 9.84831,16.88281 0,9.96431 -3.81049,12.66211 7.0345,12.66211 4.69687,0 14.29727,5.03829 18.28972,7.03451 5.67653,2.83827 8.50745,7.16659 11.25521,12.66211 2.81398,5.62796 8.05466,15.33582 9.84831,22.51042 1.6417,6.56681 3.62669,11.47408 5.6276,15.47592 1.71901,3.438 17.13212,-8.69071 18.28972,-9.84831 4.41597,-4.41597 16.74002,-9.81261 22.51042,-11.25521 8.5776,-2.1444 16.94839,-9.89749 22.51042,-14.06901 6.03758,-4.52818 11.99722,-6.36961 16.88282,-11.25521 4.75532,-4.75533 10.17641,-7.36261 14.06901,-11.25522 6.57514,-6.57514 10.50394,-9.75265 14.06902,-16.88281 3.03627,-6.07255 4.2207,-7.85369 4.2207,-16.88282 0,-4.01875 -11.86356,-9.04975 -14.06901,-11.25521 -5.51457,-5.51457 -5.62761,-9.04332 -5.62761,-18.28971 0,-11.43457 -2.13247,-13.0249 -9.84831,-16.882816 -6.56318,-3.28159 -12.62603,0.72149 -16.88281,-1.4069 -7.45201,-3.726 -12.94033,1.54601 -18.28972,4.2207 -6.51806,3.259026 -12.36113,5.200636 -19.69662,7.034506 -1.87587,0.46897 -3.75174,0.93793 -5.6276,1.4069 -8.2869,2.07172 -15.3453,4.73122 -21.10352,7.03451 -9.71519,3.88607 -19.50425,7.23893 -29.54493,11.25521 -6.3739,2.54956 -12.50209,4.06068 -16.88282,8.44141 -5.04123,5.04123 -10.96642,7.929 -16.88281,12.66211 z" style="fill:#fff;stroke:#000;stroke-width:4" role="button" aria-label="Change color"></path>
    <path d="m 353.3766,244.95196 c 1.01457,4.05825 3.73954,14.95816 5.62761,22.51042 2.06429,8.25717 9.05702,10.90388 11.25521,19.69658 1.987,7.948 10.59163,16.2193 16.88282,22.5105 5.69947,5.6994 11.97814,9.1643 16.88281,14.069 4.36694,4.3669 11.70534,6.5561 15.47592,8.4414 5.96738,2.9837 9.98275,8.5086 15.47591,11.2552 7.47906,3.7395 10.91791,4.7555 18.28972,8.44144 5.12933,2.5647 11.35921,5.3539 15.47591,8.4414 5.10601,3.8295 19.13442,2.8138 25.32423,2.8138 8.55916,0 19.27664,-4.8192 28.13802,-7.0345 7.72016,-1.93 14.60503,-1.3176 22.51042,0 8.97086,1.4951 15.31771,3.5568 23.91733,1.4069 1.82661,-0.4566 -1.08355,-19.81014 -1.40691,-21.10354 -1.64123,-6.5649 -5.11246,-10.6016 -7.0345,-18.2897 -1.98702,-7.9481 -1.25332,-16.1149 -2.8138,-23.9174 -1.62877,-8.1438 -1.40691,-20.03032 -1.40691,-28.13798 0,-6.11395 -3.10845,-16.06522 -5.6276,-21.10352 -2.1043,-4.20859 1.4069,-16.97811 1.4069,-22.51042 0,-7.81031 -5.55747,-16.74255 -8.44141,-22.51042 -3.15925,-6.3185 -4.15976,-11.01143 -5.6276,-16.88281 -1.55217,-6.20866 -8.46287,-9.86977 -12.66212,-14.06902 -4.46084,-4.46084 -16.46496,-6.93004 -22.51042,-8.44141 -6.32636,-1.58159 -10.18129,-2.8138 -18.28971,-2.8138 -7.97259,0 -10.51359,2.6284 -16.88282,4.22071 -7.59942,1.89985 -13.08299,10.05875 -21.10352,14.06901 -5.93123,2.96561 -9.59525,8.18835 -14.06901,12.66211 -5.36883,5.36883 -12.65292,9.84141 -18.28972,14.06901 -7.69747,5.77311 -14.00965,8.39689 -19.69662,12.66212 -5.94616,4.45962 -11.97562,8.09816 -18.28971,11.25521 -6.37948,3.18973 -11.63536,6.00775 -15.47592,9.84831 -2.58995,2.58995 -4.68967,5.6276 -7.03451,8.4414 z" style="fill:#fff;stroke:#000;stroke-width:4" role="button" aria-label="Change color"></path>
    <path d="m 585.57743,385.60157 c 3.70868,-4.4866 13.73999,-6.1834 22.30714,-8.3114 8.47651,-2.1055 18.5488,-1.3852 27.88393,-1.3852 6.4085,0 12.83983,4.2282 18.12454,5.5409 7.6175,1.8922 12.63743,5.5855 18.12455,8.3114 8.50016,4.2228 9.42231,5.064 15.33616,-2.7705 5.57471,-7.3851 14.78345,-7.7622 19.51874,-12.4671 5.89527,-5.8573 23.00168,-5.0207 30.67232,-6.9261 9.461,-2.3501 20.41784,-1.3853 30.67232,-1.3853 13.35482,0 8.19259,-3.9841 8.36518,-4.1557 0.96189,-0.9556 -9.4029,-11.7586 -9.75938,-12.467 -4.04002,-8.02818 -8.00013,-8.24587 -9.75937,-15.23761 -1.27264,-5.05788 -1.2333,-13.21292 -2.78839,-19.39325 -1.7321,-6.88382 -3.47638,-12.44897 -6.97099,-19.39325 -2.9915,-5.94462 -6.38721,-10.77033 -9.75937,-15.23765 -3.8786,-5.13819 -6.51543,-11.56181 -9.75937,-18.008 -3.10364,-6.16738 -5.64038,-14.1051 -6.97098,-19.39326 -0.65959,-2.62137 -7.34768,-10.44519 -9.75937,-15.23757 -2.86884,-5.70078 -3.74765,-11.6028 -6.97099,-18.00804 -3.42997,-6.81585 -3.86964,-11.22338 -5.57678,-18.00803 -1.44156,-5.72918 -2.94519,-13.09023 -4.18259,-18.00803 -1.70019,-6.75706 -4.1463,-12.43105 -8.36518,-16.62281 -6.35158,-6.31075 -8.97022,-6.03753 -18.12454,-8.31139 -6.25504,-1.55371 -14.98152,-1.64346 -19.51875,-2.77048 -7.00437,-1.73983 -13.94956,-2.42604 -20.91294,-4.15569 -9.76782,-2.42626 -8.69712,-6.59637 -16.73036,1.38523 -4.72835,4.69795 -11.54961,7.31967 -15.33615,11.08186 -5.27055,5.23667 -11.37922,9.86479 -16.73036,13.85234 -5.72325,4.26485 -7.34785,4.9046 -11.15357,12.46711 -4.01977,7.98786 -8.36518,3.70515 -8.36518,16.62279 0,7.80524 6.20683,16.80256 8.36518,22.16374 0.71163,1.76765 0.92947,3.69396 1.39419,5.54093 2.24623,8.92715 3.72582,19.417 6.97099,29.08991 2.54013,7.57139 1.39419,18.00168 1.39419,26.31939 0,6.88993 1.52883,18.54315 2.78839,23.54904 2.20505,8.76343 0.65361,17.83513 2.7884,26.31941 1.53212,6.08906 2.58811,15.82684 4.18259,22.16371 1.46986,5.8417 2.76166,15.1313 4.18258,20.7785 1.97877,7.8642 3.22288,10.7185 -5.57678,12.4671 z" style="fill:#fff;stroke:#000;stroke-width:4" role="button" aria-label="Change color"></path>
    <path d="m 765.45729,113.14459 c 1.44555,3.48209 14.52376,4.33439 19.69661,5.6276 6.6346,1.65865 12.89038,1.46397 18.28972,2.8138 5.64942,1.41236 12.66579,2.81454 19.69662,4.22071 8.33545,1.66709 11.47129,5.03219 18.28972,8.44141 4.51622,2.25811 2.8138,16.94033 2.8138,22.51042 0,8.12648 -0.40779,16.65856 1.4069,23.91732 1.45215,5.80858 6.57719,8.01904 8.44141,15.47591 1.38357,5.53428 9.39319,10.34498 11.25521,14.06902 1.8867,3.7734 7.46044,8.86734 11.25521,12.66211 4.26176,4.26176 6.44619,9.25999 9.84831,12.66211 5.59925,5.59925 8.85266,10.25956 12.66211,14.06901 5.10911,5.10911 9.0064,7.78782 12.66212,12.66212 4.5761,6.1015 11.7376,13.14447 16.8828,18.28973 3.7913,3.7913 3.4796,13.9936 5.6276,18.2897 2.3848,4.7696 1.1288,13.7744 0,18.2897 -1.3911,5.5646 -7.661,9.068 -11.2552,12.6621 -5.6602,5.6602 -8.2597,8.3506 -14.069,11.2552 -4.50598,2.253 -8.82474,7.4179 -12.66212,11.25534 -3.51725,3.5172 -9.14486,4.9241 -12.66211,8.4414 -2.94784,2.9478 -11.80423,6.6055 -12.66211,7.0345 -0.26322,0.1316 -13.80604,-3.9348 -18.28972,-2.8138 -5.52014,1.38 -11.60914,3.9574 -18.28972,5.6276 -5.75189,1.4379 -10.20724,3.6967 -16.88281,7.0345 -9.20699,4.6035 -11.25522,2.5404 -11.25522,-5.6276 0,-7.0371 -8.44422,-11.2665 -9.8483,-16.8828 -1.88103,-7.52414 -4.59898,-10.22664 -8.44141,-14.06914 -3.14438,-3.1443 -4.41529,-10.6266 -5.62761,-15.4759 -1.65005,-6.6002 -5.20991,-10.9913 -7.0345,-18.2897 -1.18319,-4.7327 -5.44316,-11.4782 -8.44141,-15.4759 -4.09209,-5.4561 -7.05717,-11.2854 -11.25521,-16.88282 -5.17493,-6.8999 -6.4909,-9.08078 -8.44141,-16.88282 -1.56614,-6.26456 -2.52357,-11.50119 -4.2207,-18.28972 -1.09072,-4.36286 -8.51756,-12.32006 -11.25521,-16.88281 -3.27739,-5.46231 -4.26175,-12.82628 -5.62761,-18.28972 -1.88151,-7.52602 -3.71014,-14.45479 -7.03451,-21.10352 -2.45147,-4.90294 -1.4069,-13.07344 -1.4069,-19.69662 0,-8.19172 1.06421,-14.10513 2.8138,-21.10352 1.92537,-7.70145 3.36783,-10.40233 8.44141,-15.47591 6.67716,-6.67716 9.32452,-8.44141 18.28972,-8.44141 8.09722,0 9.2109,-5.6276 18.28972,-5.6276 z" style="fill:#fff;stroke:#000;stroke-width:4" role="button" aria-label="Change color"></path>
    <path d="m 869.76796,132.35844 c 1.59691,6.38767 15.57114,-14.25948 16.88281,-16.88282 2.55144,-5.10288 2.8138,-10.29969 2.8138,-18.289716 0,-4.04766 14.57537,11.761556 15.47592,12.662116 5.48974,5.48979 10.45304,10.18567 15.47594,16.88281 4.5649,6.08661 8.2833,11.09713 15.4759,18.28972 1.1956,1.19563 2.8138,1.87587 4.2207,2.8138 3.0476,2.03173 5.6276,4.68967 8.4414,7.03451 5.2758,4.39651 8.2649,9.61302 12.6621,15.47591 4.885,6.51335 8,11.7793 11.2552,18.28972 2.3951,4.79015 8.6105,8.61045 12.6621,12.66211 4.6957,4.69565 8.3236,6.91664 12.66213,11.25521 5.13564,5.13555 9.53654,8.75328 2.81384,15.47592 -4.66304,4.66303 -7.13027,10.23112 -8.44147,15.47591 -1.9084,7.63375 -3.7706,15.08274 -5.6276,22.51042 -1.323,5.29193 -11.596,8.61182 -14.069,9.84831 -4.2454,2.12269 -7.924,11.62739 -9.8483,15.47589 -2.5601,5.1202 -7.2882,-8.9489 -9.8483,-14.06899 -2.4819,-4.96371 -8.4659,-8.46587 -11.2552,-11.25521 -4.8359,-4.83584 -6.3558,-9.16959 -11.2552,-14.06901 -4.1945,-4.19443 -9.3442,-6.53034 -14.069,-11.25521 -4.2415,-4.24143 -8.52441,-8.52438 -12.66214,-12.66211 -5.24796,-5.24796 -6.71314,-8.12004 -11.25521,-12.66212 -3.82493,-3.82493 -4.88649,-9.10719 -9.84831,-14.06901 -5.56897,-5.56897 -5.38577,-10.04604 -7.03451,-18.28972 -1.22365,-6.11827 -2.57506,-11.70713 -4.2207,-18.28971 -1.53376,-6.13502 0,-14.74227 0,-21.10352 0,-3.9204 -1.4069,-5.27888 -1.4069,-11.25521 z" style="fill:#fff;stroke:#000;stroke-width:4" role="button" aria-label="Change color"></path>
    <path d="m 899.53328,54.776614 c 9.9431,16.28691 30.63852,0.32846 40.96016,18.25755 22.63222,12.39834 50.57817,17.61905 66.88266,39.519946 12.9635,14.6795 16.912,35.17874 12.7558,54.02477 5.9171,19.54162 -18.0642,33.92945 -21.98324,8.71316 -2.1511,-19.24752 -15.30988,-34.22947 -32.93108,-41.37215 -19.75042,-11.00184 -29.71439,-32.96475 -46.32667,-47.737526 -12.70184,-10.30564 -17.37597,-14.71289 -19.35763,-31.40575 z" style="fill:#fff;stroke:#000;stroke-width:4" role="button" aria-label="Change color"></path>
    <path d="m 732.10652,10.925704 c 0,-0.2749 22.15913,0 29.06542,0 7.94078,0 14.76351,-0.28201 24.22118,1.6452 8.22359,1.67573 16.71502,4.93559 24.22119,4.93559 9.20555,0 16.10048,4.93561 25.83593,4.93561 10.03579,0 15.12842,3.59387 20.99169,6.5808 5.69754,2.9025 10.56422,9.11826 16.14746,14.80681 4.65164,4.73937 8.16432,13.3462 11.30322,19.74241 2.83819,5.78343 1.43195,15.55177 0,21.38762 -2.63128,10.72362 -5.53176,14.56258 -9.68847,23.032796 -3.9529,8.05491 -9.82449,10.31716 -14.53272,11.5164 -1.9065,0.48562 -14.54819,-9.87908 -17.7622,-11.5164 -5.12765,-2.61218 -13.63256,-3.47241 -19.37695,-4.9356 -8.63577,-2.19966 -18.13164,-1.6452 -27.45067,-1.6452 -12.96722,0 -12.73961,0.91346 -17.7622,-1.645196 -6.42301,-3.27207 0.23359,-16.21401 -4.84424,-21.38761 -5.31668,-5.41695 -9.24752,-9.42195 -14.53271,-14.80681 -5.1381,-5.235 -5.24525,-13.70637 -9.68848,-19.74241 -4.36776,-5.93353 -6.66049,-12.33769 -8.07372,-18.09721 -1.23029,-5.01398 -4.80009,-9.24782 -8.07373,-14.8068 z" style="fill:#fff;stroke:#000;stroke-width:4" role="button" aria-label="Change color"></path>
    <path d="m 636.50513,127.24037 c -3.15291,-7.85057 14.2639,-0.37724 21.10352,1.75155 8.23244,2.56229 14.90102,3.32418 21.10352,5.25466 7.64555,2.37962 12.24357,2.98203 16.88282,8.75777 7.55002,9.39956 3.35086,16.5926 7.03451,-1.75156 1.8326,-9.12618 7.15804,-15.91777 11.25521,-21.01863 3.51725,-4.37888 9.14485,-6.13043 12.66211,-10.50932 5.27156,-6.56295 12.71839,-7.04124 18.28971,-10.509306 7.43319,-4.62706 5.42582,-6.25605 -1.4069,-10.50932 -5.48127,-3.41202 -7.34774,-15.57231 -8.4414,-21.01864 -1.10265,-5.49107 -8.31856,-13.70653 -9.84831,-17.51552 -2.63743,-6.56704 -4.82743,-13.77157 -7.03451,-19.26709 -3.30204,-8.22189 -8.44141,-7.37423 -8.44141,-19.26707 0,-4.2023804 -13.18699,-7.6074704 -16.88281,-8.7577704 -7.17838,-2.23420998 -14.17842,1.75155 -21.10352,1.75155 -8.65196,0 -13.35595,1.75156 -22.51042,1.75156 -7.03451,0 -14.06902,0 -21.10352,0 -10.17786,0 -17.21891,1.75156 -28.13803,1.75156 -9.33047,0 -15.08455,1.62974 -21.10352,3.5031004 -8.5262,2.65372 -12.35365,8.37374 -12.66211,8.75777 -2.25294,2.80484 12.0502,13.63151 12.66211,14.01242 5.95593,3.70747 13.0275,12.71577 16.88282,17.51552 5.26873,6.55943 9.07425,13.04875 14.06901,19.26708 5.978,7.44244 8.51482,10.60071 12.66211,15.76398 4.22946,5.26555 5.7428,14.586086 7.03451,21.018626 1.4603,7.27213 2.89032,10.66809 7.0345,19.26708 z" style="fill:#fff;stroke:#000;stroke-width:4" role="button" aria-label="Change color"></path>
    <path d="m 436.04241,66.275494 c -5.43881,5.4388 14.84991,-7.18941 18.28971,-14.06902 2.06595,-4.13189 13.38461,-9.85592 16.88282,-11.25521 8.07483,-3.22993 12.04832,-5.22346 21.10352,-7.0345 7.31288,-1.46258 15.07327,-4.12005 21.10352,-5.62761 7.46264,-1.86566 15.5076,-1.4069 22.51042,-1.4069 7.75142,0 14.74541,4.728 19.69662,8.44141 5.47614,4.1071 7.98981,6.58291 12.66211,11.25521 4.42292,4.42292 7.84481,10.92872 11.25521,15.47591 4.20316,5.60422 6.15933,9.50485 9.84831,16.88282 3.04465,6.08929 8.02765,10.84145 11.25521,14.06901 2.63808,2.63808 7.38515,11.250886 8.44141,15.475916 0.1969,0.7876 -12.6568,8.43609 -14.06901,9.84831 -3.7376,3.73759 -10.99673,7.60871 -15.47592,9.8483 -6.95503,3.47752 -9.38358,5.16288 -14.06901,9.84831 -3.41466,3.41466 -9.52303,6.70923 -14.06901,11.25521 -5.47891,5.47891 -8.98548,8.71344 -14.06902,11.25521 -7.62193,3.81097 -9.40068,4.66833 -15.47591,-1.4069 -4.06952,-4.06951 -11.96578,-7.21215 -16.88282,-8.4414 -6.69864,-1.67467 -13.87901,-1.40691 -21.10352,-1.40691 -6.13571,0 -12.17058,0 -19.69662,0 -6.56554,0 0,-13.13107 0,-19.69661 0,-9.19415 -3.8361,-11.1237 -5.6276,-18.28972 -0.84783,-3.39133 -8.34196,-6.63672 -9.84831,-12.662106 -2.0715,-8.28602 -2.14034,-9.90829 -5.62761,-16.88282 -2.69911,-5.39822 -5.14943,-7.9356 -7.0345,-15.47591 z" style="fill:#fff;stroke:#000;stroke-width:4" role="button" aria-label="Change color"></path>
    <g transform="translate(-5.1639362,-212.82909)">
      <path d="m -379.86337,558.53979 a 25.324224,26.731125 0 1 1 -50.64845,0 25.324224,26.731125 0 1 1 50.64845,0 z" transform="translate(497.1513,-220.3761)" style="fill:#fff;stroke:#000;stroke-width:4" role="button" aria-label="Change color"></path>
      <path d="m 58.629606,806.71405 a 7.9000907,6.7573104 0 1 1 -15.800182,0 7.9000907,6.7573104 0 1 1 15.800182,0 z" transform="translate(40.56715,-455.1131)" style="fill:#fff;stroke:#000;stroke-width:4" role="button" aria-label="Change color"></path>
    </g>
  </g>
</svg>