<svg width="400" height="400" stroke="gray" fill="white" stroke-width="1"><path d="M 162 217 L 120 276 Q 125 296 147 294 L 188 236 "></path><path d="M 120 276 Q 125 296 147 294 C 131 312 108 348 124 346 C 138 341 138 303 163 332 Q 172 353 143 378 C 110 398 79 361 80 342 Q 80 326 120 276 "></path><path d="M 378 279 Q 369 317 351 344 Q 334 320 283 329 Q 311 288 320 253 Q 366 254 378 279 "></path><path d="M 320 253 Q 366 254 378 279 Q 388 227 380 184 Q 353 171 331 179 Q 332 217 320 253 "></path><path d="M 380 184 Q 353 171 331 179 Q 333 113 301 49 Q 369 113 380 184 "></path><path d="M 331 179 Q 333 113 301 49 Q 301 111 286 160 Q 323 157 331 179 "></path><path d="M 286 160 Q 323 157 331 179 Q 332 217 320 253 Q 302 228 260 230 Q 278 196 286 160 "></path><path d="M 320 253 Q 302 228 260 230 Q 249 266 224 299 Q 276 289 282 330 Q 308 294 320 253 "></path><path d="M 301 50 Q 301 111 287 161 Q 277 137 241 135 L 301 50 "></path><path d="M 241 137 Q 276 134 285 161 Q 274 207 261 230 Q 244 196 201 195 L 241 137 "></path><path d="M 261 230 Q 244 196 201 195 L 164 250 Q 213 252 223 298 Q 248 270 261 230 "></path><path d="M 301 50 Q 220 92 204 105 Q 236 111 240 137 L 301 50 "></path><path d="M 204 105 Q 236 111 240 137 L 202 195 Q 191 161 152 149 Q 173 128 204 105 "></path><path d="M 202 195 Q 191 161 152 149 Q 116 179 100 202 Q 160 208 164 249 L 202 195 "></path><path d="M 300 52 Q 224 38 172 65 Q 204 76 203 106 Q 236 83 300 52 "></path><path d="M 172 65 Q 204 76 203 106 Q 172 129 150 150 Q 146 114 108 97 Q 142 74 172 65 "></path><path d="M 150 150 Q 146 114 108 97 Q 70 121 47 156 Q 98 163 100 201 Q 120 177 150 150 "></path><path d="M 300 51 Q 213 40 172 65 Q 174 38 154 19 Q 251 9 300 51 "></path><path d="M 172 65 Q 174 38 154 19 Q 118 26 83 44 Q 106 59 109 97 Q 140 73 172 66 "></path><path d="M 83 44 Q 106 59 109 97 Q 70 123 48 157 Q 49 119 14 96 Q 39 67 83 44 "></path><path d="M 276 37 C 273 73 307 72 318 68 L 309 57 C 333 32 302 12 287 42  L 276 37 "></path></svg>